<svg xmlns="http://www.w3.org/2000/svg" xmlns:xlink="http://www.w3.org/1999/xlink" width="1920" height="1621" xmlns:v="https://vecta.io/nano"><style><![CDATA[.B{fill:#839b77}.C{fill:#6970b0}.D{fill:#393633}.E{fill:#a06e5d}.F{fill:#f2e5d9}]]></style><path d="M0 0v1621h1920V0H0z" class="F"/><path d="M1425 132l1 1-1-1m-877.333 33.333l.666.334-.666-.334M536 166v1h4l-4-1z" class="B"/><path d="M650 355l1-1c11.797 2.841 18.264-16.242 20.974-25 4.784-15.455 3.026-31.107 3.026-47 0-9.521 1.113-19.79-1.775-29-2.799-8.928-10.133-14.206-19.225-15-.151-18.264-12.725-30.781-26-41.75-9.68-7.998-19.861-16.363-32-20.221-6.888-2.19-14.032-1.798-21-3.543-21.14-5.294-37.056-9.594-58 .884-21.046 10.53-24.981 29.349-36.468 47.626-5.433 8.645-16.148 12.156-21.304 21.004-3.632 6.234-1.054 13.427-3.337 20-2.925 8.42-10.418 14.247-13.117 23-3.646 11.825.419 21.384 1.132 33 .414 6.74-2.249 13.235-1.816 20 .896 13.984 8.572 19.047 15.297 30.015 3.795 6.188 4.252 13.503 9.718 18.8 6.063 5.875 13.186 4.47 19.711 8.212 6.354 3.644 8.916 11.356 16.184 14.505 15.819 6.852 37.15 3.468 54 3.468 8.829 0 18.592.762 27-2.468 8.314-3.195 10.751-10.324 17.379-14.759 3.119-2.087 8.036-.804 11.621-2.421 12.3-5.548 39.527-22.585 37-38.352z" class="C"/><path d="M555 166v1h3l-3-1m-22.333 1.333l.666.334-.666-.334m28 0l.666.334-.666-.334m-32 1l.666.334-.666-.334M564 168l1 1-1-1m-38 1l1 1-1-1m40.667.333l.666.334-.666-.334M523 170l1 1-1-1m46 0l1 1-1-1m-48.333 1.333l.666.334-.666-.334M571 171l1 1-1-1m-53 1l1 1-1-1m56.667.333l.666.334-.666-.334M516 173l1 1-1-1m64 0v1h7l-7-1m-66 1l1 1-1-1m76.667.333l.666.334-.666-.334M513 175l1 1-1-1m81.667.333l.666.334-.666-.334M511 176l1 1-1-1m86.667.333l.666.334-.666-.334M600 177l1 1-1-1m-92 1l1 1-1-1m94 0l1 1-1-1m-95 1l1 1-1-1m97 0l1 1-1-1m2 1l1 1-1-1m-102 1l1 1-1-1m-1 1l1 1-1-1m106 0l1 1-1-1m-107 1l1 1-1-1m109 0l1 1-1-1m-110 1l1 1-1-1m111 0l1 1-1-1m-112 1l1 1-1-1m114 0l1 1-1-1m-115 1l1 1-1-1m116 0l1 1-1-1m-117 1l1 1-1-1m118 0l1 1-1-1m2 1l1 1-1-1m1 1l1 1-1-1m-123 1l1 1-1-1m124 0l1 1-1-1m-125 1l1 1-1-1m128 1l1 1-1-1m-129 1l1 1-1-1m130 0l1 1-1-1m1 1l1 1-1-1m-132 1l1 1-1-1m-1 1l1 1-1-1m136 0l1 1-1-1m1 1l1 1-1-1m943 0v1h3l-3-1m272 0v1h3l-3-1m-1353 1l1 1-1-1m57 0v1h15l-15-1m82 0l1 1-1-1m939 0l1 1-1-1z" class="B"/><path d="M1797 769c-3.6 19.398-2.74 40.314-4.09 60-2.28 33.209-6.08 66.727-6.9 100-.28 11.73-3.42 24.918 1.91 35.999 3.14 6.521 10.53 10.245 16.87 5.298 10.87-8.49 7.07-29.383 8.63-41.297 5.59-42.574 3.68-86.249 7.75-129 14.33-150.529 13.67-302.484 28-453 3.47-36.465 5.27-73.402 6.87-110 .46-10.605 4.98-31.489-7.08-37.82-5.56-2.919-10.32 1.145-12.99 5.824-5.1 8.925-3.26 20.231-4.55 29.996-3.15 24.036-2.85 48.817-4.51 73-1.34 19.573-3.91 39.37-3.91 59l-27 1.911-9.88 1.692L1787 391l34-2c0 45.569-3.38 93.75-8.71 139-1.63 13.75 3.81 38.354-11.29 43l1 12c-11.59-3.266-25.24-4.898-37-1.084-12.2 3.958-21.48 11.894-35 12.065-20.64.262-40.24-10.374-61-9.966-21.01.414-40.8 11.381-62 9.896-9.97-.699-16.03-6.819-25-9.401-6.07-1.749-12.84.363-19 .49 0-59.272 6.34-119.917 11-179h6v-24h-5c2.89-15.56 2.01-32.218 3.09-48 2.34-34.181 2.61-68.982 6.62-103 1.01-8.49 1.41-19.4-3.08-26.985-2.73-4.627-8.36-7.872-13.33-4.273-10.56 7.65-9.14 30.695-9.3 42.258-.5 37.031-6.11 73.968-7.01 111-1.95 79.221-10.48 158.932-15.9 238-4.45 65.037-4.74 131.268-12.38 196-5.49 46.568-6.42 94.203-9.62 141-.8 11.7-6.09 40.053 9.91 44.307 19.07 5.069 16.12-31.465 17.29-41.307 4.05-34.338 5.85-70.432 6.7-105 .23-9.675.92-19.371 1.84-29 .3-3.154-.7-7.923 1.77-10.397 3.43-3.425 14.78-2.544 19.4-2.607 15.31-.207 30.69-2.359 46-3.035 59.9-2.646 120.03-11.961 180-11.961z" class="E"/><path d="M1576 198l1 1-1-1m265 0l1 1-1-1m7 0l1 1-1-1m-1307 1v1h4l-4-1z" class="B"/><path d="M545 199.428c-92.6 13.267-113.57 167.023-19 193.862 12.709 3.607 25.985 4.043 39 2.424 48.854-6.079 97.137-59.071 93.91-109.714-3.352-52.595-63.159-93.843-113.91-86.572z" class="F"/><path d="M567 199v1h4l-4-1m64 0l1 1-1-1m947 0l1 1-1-1m272 0l1 1-1-1m-1360 1l1 1-1-1m47.667.333l.666.334-.666-.334M573 200v1h3l-3-1m1006 0l1 1-1-1m272 0l1 1-1-1m-1317.333 1.333l.666.334-.666-.334M578 201v1h3l-3-1m988 0l1 1-1-1m272 0l1 1-1-1m-1349 1l1 1-1-1m41.667.333l.666.334-.666-.334m52 0l.666.334-.666-.334M1565 202l1 1-1-1m272 0l1 1-1-1m-1309 1l1 1-1-1m57.667.333l.666.334-.666-.334M636 203l1 1-1-1m928 0l1 1-1-1m17 0l1 1-1-1m255 0l1 1-1-1m17 0l1 1-1-1m-1364.667 1.667l.334.666-.334-.666M525 204l1 1-1-1m63.667.333l.666.334-.666-.334M637 204l1 1-1-1m-114 1l1 1-1-1m68 0l1 1-1-1m47 0l1 1-1-1m739 17v1c3.03 2.471 6.05 4.897 8.47 8.004 16.13 20.727-15.33 22.058-28.47 21.995-3.3-.015-7.79-1.193-10.71.694-12.09 7.822-20.24 27.237-27.29 39.307-4.58-13.434-15.16-15.15-28-14.996-21.99.263-45.93 14.616-64 25.946-6.41 4.017-16.95 8.894-20.97 15.514-2.85 4.692-1.03 14.197-1.03 19.536v47c0 4.226-2.17 17.188 2.32 19.397 4.68 2.305 13.53.603 18.68.603 13.67 0 27.29.978 41 1 44.3.071 88.69 4 133 4l7.04-134 3.96-72c-13.99.116-24.36 7.44-34 17m186-17l1 1-1-1m19 0l1 1-1-1m253 0l1 1-1-1m19 0l1 1-1-1m-1366.667 1.667l.334.666-.334-.666M521 206l1 1-1-1m73 0l1 1-1-1m45 0l1 1-1-1m-120 1l1 1-1-1m77 0l1 1-1-1m987 0l1 1-1-1m251 0l1 1-1-1m21.33.667l.34.666-.34-.666M517 208l1 1-1-1m81.667.333l.666.334-.666-.334M1562 208l1 1-1-1m-1076 1l1 1-1-1m29 0l1 1-1-1m85.667.333l.666.334-.666-.334m-87 1l.666.334-.666-.334m89 0l.666.334-.666-.334m958.663.334l.34.666-.34-.666m23 0l.34.666-.34-.666m249 0l.34.666-.34-.666M485 211l1 1-1-1m27 0l1 1-1-1m92.667.333l.666.334-.666-.334m1251.663.334l.34.666-.34-.666M510 212l1 1-1-1m96 0l1 1-1-1m38 0l1 1-1-1m-160 1l1 1-1-1m25 0l1 1-1-1m99 0l1 1-1-1m37 0l1 1-1-1m-137 1l1 1-1-1m102 0l1 1-1-1m-127 1l1 1-1-1m23 0l1 1-1-1m105.667.333l.666.334-.666-.334M1560 215v5h1l-1-5m272 0v4h1l-1-4m-1327 1l1 1-1-1m108 0l1 1-1-1m34 0l1 1-1-1m938 0v8h1l-1-8m-1103 1l1 1-1-1m133 0l1 1-1-1m33 0l1 1-1-1m1209 0v6h1l-1-6m-1355 1l1 1-1-1m114 0l1 1-1-1m-135 1l1 1-1-1m20 0l1 1-1-1m117 0l1 1-1-1m31 0l1 1-1-1m-149 1l1 1-1-1m119 0l1 1-1-1m-139 1l1 1-1-1m19 0l1 1-1-1m121 0l1 1-1-1m30 0l1 1-1-1m-152 1l1 1-1-1m124 0l1 1-1-1m-125 1l1 1-1-1m126 0l1 1-1-1m28 0l1 1-1-1m-173 1l1 1-1-1m18 0l1 1-1-1m128 0l1 1-1-1M157 462h-1c-10.85-27.967-24.102-61.706-49-80.076-22.756-16.789-46.293 2.643-40.32 29.076 4.275 18.918 21.324 33.67 33.239 48 17.722 21.314 33.189 44.649 46.39 69 5.834 10.763 13.85 22.714 15.691 35h59c1.732-11.554 9.199-22.869 14.691-33 13.807-25.468 29.811-49.742 48.389-72 11.789-14.123 29.036-29.036 32.455-48 4.533-25.139-16.952-44.9-39.535-28.957-22.59 15.948-39.804 48.648-47 74.957-2.193-13.625 6.296-33.614 9.627-47 10.289-41.361 25.37-83.981 25.373-127 .001-14.573.134-33.986-7.367-46.999-5.856-10.162-18.162-11.675-28.633-8.842-19.325 5.228-32.241 22.816-40.753 39.841-10.125 20.249-15.032 42.925-19.447 65-8.699 43.499-11.8 86.744-11.8 131m320-237l1 1-1-1m18 0l1 1-1-1m157.333.667l.334.666-.334-.666M476 226l1 1-1-1m18 0l1 1-1-1m133 0l1 1-1-1m-134 1l1 1-1-1m135 0l1 1-1-1m1203 0v8h1l-1-8m-1339 1l1 1-1-1m137 0l1 1-1-1m24 0v3h1l-1-3m-181 1l1 1-1-1m19 0l1 1-1-1m139 0l1 1-1-1m929 0v7h1l-1-7m-1088 1l1 1-1-1m160 0l1 1-1-1m1 1l1 1-1-1m-164 1l1 1-1-1m165 0l1 1-1-1m951 0v8h1l-1-8m272 0v6h1l-1-6m-1389 1l1 1-1-1m21 0l1 1-1-1m146 0l1 1-1-1m-147 1l1 1-1-1m148 0l1 1-1-1m-171 1l1 1-1-1m172 0l1 1-1-1m18 0v3h1l-1-3m-191 1l1 1-1-1m23 0l1 1-1-1m151 0l1 1-1-1m-175 1l1 1-1-1m23 0l1 1-1-1m153 0l1 1-1-1m-177 1l1 1-1-1m23 0l1 1-1-1m174.667.333l.666.334-.666-.334M460 239l1 1-1-1m201.667.333l.666.334-.666-.334M483 240l1 1-1-1m157 0l1 1-1-1m-181 1l1 1-1-1m23.333.667l.334.666-.334-.666M641 241l1 1-1-1m24 0l1 1-1-1m-207 1l1 1-1-1m184 0l1 1-1-1m24 0l1 1-1-1m-185 1l1 1-1-1m186 0l1 1-1-1m1163 0v7h1l-1-7m-1372.667 1.667l.334.666-.334-.666M643 244l1 1-1-1m25 0l1 1-1-1m890 0v7h1l-1-7m-1078 1l1 1-1-1m164 0l1 1-1-1m25 0l1 1-1-1m-189.667 1.667l.334.666-.334-.666M645 247l1 1-1-1m-189 1v13h1l-1-13m22 0l1 1-1-1m168 0l1 1-1-1m25 0l1 1-1-1m912 0v8h1l-1-8m272 0v7h1l-1-7m-1378 2l1 1-1-1m170 0l1 1-1-1m25 0l1 1-1-1m-24 1l1 1-1-1m-172 1l1 1-1-1m197.333.667l.334.666-.334-.666M649 253l1 1-1-1m-173.667 1.667l.334.666-.334-.666M650 255l1 1-1-1m-175.667 1.667l.334.666-.334-.666M674 256v3h1l-1-3m-23 1l1 1-1-1m1178 1v7h1l-1-7m-1356 1l1 1-1-1m179 0l1 1-1-1m905 0v8h1l-1-8m-1084.667 2.667l.334.666-.334-.666m181 0l.334.666-.334-.666M455 263l1 1-1-1m199.333.667l.334.666-.334-.666M471 264l1 1-1-1m1383 0v7h1l-1-7m-1400 1l1 1-1-1m221 0v6h1l-1-6m907 0v7h1l-1-7m-926.667 1.667l.334.666-.334-.666M453 267l1 1-1-1m17 0l1 1-1-1m-18 1l1 1-1-1m-1 1l1 1-1-1m205.333.667l.334.666-.334-.666M450 270l1 1-1-1m19 0l1 1-1-1m-20 2l1 1-1-1m-1 1l1 1-1-1m20.333.667l.334.666-.334-.666M657 273v3h1l-1-3m-210 1l1 1-1-1m1381 0v7h1l-1-7m-272 1v7h1l-1-7m-1110 1l1 1-1-1m21.333 1.667l.334.666-.334-.666M445 278l1 1-1-1m213 0v5h1l-1-5m-214 2l1 1-1-1m656 0v1l3 1-3-2m481 0v8h1l-1-8m272 0v8h1l-1-8m-1387 1v3h1l-1-3m632 0l1 1-1-1z" class="B"/><path d="M1099 281l1 1-1-1z" class="C"/><path d="M1090 288c-25.93 2.364-9.24 35.367-24 44l-6.26-6.264L1052 311c-6.08 2.443-16.01 22.189-5 22l-2 3c2.07 2.798 6.78 13.774-1.39 12.673-3.29-.443-5.72-5.094-8.61-6.673l1-2-5-1-3 10c-4.38 3.831-2.58 16.802 2 20 .13 5.695 5.38 12.036 11 13l5 4 5-10c-6.62.236-13.27-13.515-15-19l2-1h1l3 4c.26 6.361 5.06 11.923 11 14l12-21-8-4 1-3c-4.46-4.765-7.26-11.505-6-18h1c1.66 5.739 3.31 15.731 10 17l-1 3 5 2 19-37h1l-13 31c10.14 2.624 19.49 2.785 29-2l1 5-24 3-8-4-9 20-5 6 25 4.911 17 .089c-9.24 4.474-20.31 3.54-30 1.105-5.04-1.266-9.8-4.121-15-3.105l1 2-8 11h5c2.19 2.874 4.64 2.842 8 2 2.84 3.256 8.93 2.007 13 2 10.98-.018 37.49-4.33 36.59-19.981-.74-12.717-29.77 3.612-20.59-15.019 3.58.879 8.45.138 9-4 8.95.399 16.6-9.425 15-18 4.6-.771-.51-10.432-2-13l-7 11c-4.09.738-21.32 8.798-18.88-2.961.74-3.573 4.24-5.355 4.88-9.039 4.09-2.207 6.18-5.314 6-10 5.8-.789 8.76-23.53 4.99-27.977-2.8-3.294-10.5 2.4-11.99 4.977z" class="D"/><path d="M1101 281l1 1-1-1z" class="C"/><path d="M443 282l1 1-1-1m653 0l1 1-1-1z" class="B"/><path d="M1097 282l1 1-1-1m5 0l1 1-1-1z" class="C"/><path d="M1094 283l1 1-1-1z" class="B"/><path d="M1095.67 283.333l.66.334-.66-.334M1100 283l1 1-1-1z" class="C"/><path d="M1092 284l1 1-1-1z" class="B"/><path d="M1093 284l1 1-1-1m5 0l2 2-2-2m4 0l1 1-1-1z" class="C"/><path d="M1103 284v6h1l-1-6m-661 1l1 1-1-1m648 0l1 1-1-1z" class="B"/><path d="M1091 285l1 1-1-1m5 0l-1 2 1-2z" class="C"/><path d="M465 286v4h1l-1-4m623 0l1 1-1-1z" class="B"/><path d="M1089.33 286.667l.34.666-.34-.666M1092 286l1 1-1-1z" class="C"/><path d="M1087 287l1 1-1-1z" class="B"/><path d="M1097.67 287.333l.66.334-.66-.334z" class="C"/><path d="M441 288v3h1l-1-3m644 0l1 1-1-1z" class="B"/><path d="M1086 288l1 1-1-1m14 0l1 1-1-1z" class="C"/><path d="M1084 289l1 1-1-1m743 0v7h1l-1-7m-1152 1v12h1l-1-12z" class="B"/><path d="M1083 290l1 1-1-1m2 0l-1 1 1 2-2 3h1l-1-2h1 4v-4h-3m16.33.667l.34.666-.34-.666M1103 290v3h1l-1-3z" class="C"/><path d="M1555 290v7h1l-1-7m-474 1l-1 2 1-2z" class="B"/><path d="M1082 291l1 1-1-1z" class="C"/><path d="M1085 291l1 1-1-1z" class="D"/><path d="M1081 292l1 1-1-1z" class="C"/><path d="M464 293v5h1l-1-5m194 0v6h1l-1-6m421 0l1 1-1-1z" class="B"/><path d="M1085 293l1 1-1-1z" class="D"/><path d="M1103 293v6h1l-1-6m-25 1l1 1-1-1z" class="B"/><path d="M1080 294l-5 12h1l1-5 1 2h1l1-3-2 1v-1l2-6z" class="C"/><path d="M440 295v8h1l-1-8m637 0l-1 2 1-2z" class="B"/><path d="M1077 296l-1 2h2l-1-2m19 0l1 1-1-1z" class="C"/><path d="M1852 296v8h1l-1-8m-272 1v7h1l-1-7m-505 1l1 1-1-1z" class="B"/><path d="M1102 298v4h1l-1-4z" class="C"/><path d="M1074 299l1 1-1-1z" class="B"/><path d="M1074 300l1 1-1-1m24.33.667l.34.666-.34-.666m2 0l.34.666-.34-.666z" class="C"/><path d="M657 301v3h1l-1-3m416 0l1 1-1-1z" class="B"/><path d="M1073 302l1 1-1-1z" class="C"/><path d="M1102.33 302.667l.34.666-.34-.666m-30 1l.34.666-.34-.666z" class="B"/><path d="M1099 303l-1 2 1-2m-26 1l1 1-1-1m5 0v3h1l-1-3m23 0l1 1-1-1m-29 1l1 1-1-1m24 0l1 1-1-1z" class="C"/><path d="M1101.33 305.667l.34.666-.34-.666M1826 305v7h1l-1-7m-1384.667 1.667l.334.666-.334-.666M656 306v3h1l-1-3m415.33.667l.34.666-.34-.666M1554 306v6h1l-1-6m-879 1v8h1l-1-8z" class="B"/><path d="M1097 307l-1 3 1-3m3 0l1 1-1-1m-29 1v7h1l-1-7m2 0l1 1-1-1m6 0l1 1-1-1z" class="C"/><path d="M1100.33 308.667l.34.666-.34-.666z" class="B"/><path d="M1076 309l1 1-1-1z" class="C"/><path d="M442.333 310.667l.334.666-.334-.666m213 0l.334.666-.334-.666M1051 310l1 1-1-1z" class="B"/><path d="M1099 310l1 1-1-1z" class="C"/><path d="M1048 311l1 1-1-1z" class="B"/><path d="M1049.67 311.333l.66.334-.66-.334M1052 311l1 1-1-1m45 0v2h2l-2-2z" class="C"/><path d="M1099 311l1 1-1-1m-52 1l1 1-1-1z" class="B"/><path d="M1051 312l1 1-1-1m2 0l2 3-2-3m20 0l1 1-1-1m2 0l2 3-2-3m3 0l1 1-1-1m6.67.333l.66.334-.66-.334M1090 312l1 1-1-1z" class="C"/><path d="M1579 312v8h1l-1-8m272 0v8h1l-1-8m-805 1l1 1-1-1z" class="B"/><path d="M1049 313l1 3h1l-2-3z" class="C"/><path d="M1054 313l1 1-1-1z" class="B"/><path d="M1086 313l-19 37-5-2 1-3c-6.37-1.907-7.82-11.476-10-17h-1c-1.65 5.997.8 14.322 6 18l-1 3 8 4-12 21c-5.39-2.803-10.2-7.787-11-14l-3-4-3 1c1.72 6.832 7.23 18.124 15 19l-6 13 11-12-1-2c14.46-.954 30.67 11.845 45 2l-17-.17-25-4.83 5-6 9-20 8 4 24-3-1-5c-10.58 3.758-17.96 4.141-29 2 2.89-6.946 16.41-23.995 12-31m2 0l2 2-2-2m4.33.667l.34.666-.34-.666M1095 313l-2 4 2-4z" class="C"/><path d="M1098 313l1 1-1-1m-654.667 1.667l.334.666-.334-.666m211 0l.334.666-.334-.666M1045 314l1 1-1-1z" class="B"/><path d="M1083 314l1 1-1-1m14 0l1 1-1-1z" class="C"/><path d="M464 315v7h1l-1-7z" class="B"/><path d="M1045 315l1 1-1-1m2 0l3 3-3-3z" class="C"/><path d="M1055 315l1 1-1-1m16 0v3h1l-1-3z" class="B"/><path d="M1073 315l1 1-1-1m6 0l1 1-1-1z" class="C"/><path d="M1097 315l1 1-1-1m-53 1l1 1-1-1z" class="B"/><path d="M1055 316l1 1-1-1m41 0l1 1-1-1z" class="C"/><use xlink:href="#B" class="B"/><path d="M1044.33 317.667l.34.666-.34-.666M1046 317l1 1-1-1m6 0c1.12 2.607 2.34 3.068 3 0h-1-2m25 0l1 1-1-1m11 0l1 1-1-1m7 0l-1 3h1v-3z" class="C"/><path d="M1204 317l1 1-1-1m-530 1v3h1l-1-3m369.33.667l.34.666-.34-.666M1056 318l1 1-1-1z" class="B"/><path d="M1072 318l1 1-1-1m3.33.667l.34.666-.34-.666m17 0l.34.666-.34-.666z" class="C"/><path d="M1095 318l1 1-1-1z" class="B"/><path d="M1045 319v1h3v-1h-3m5 0l1 1-1-1m6 0l1 1-1-1z" class="C"/><path d="M1072 319v3h1l-1-3z" class="B"/><path d="M1086 320v1l4 2v-4l-4 1z" class="C"/><use xlink:href="#B" x="-1" y="3" class="B"/><path d="M1043 320l1 1-1-1z" class="C"/><path d="M1057 320l1 1-1-1z" class="B"/><path d="M1079.67 320.333l.66.334-.66-.334z" class="C"/><path d="M1089 320l1 1-1-1z" class="D"/><path d="M1093 320l-2 1v1l2-2z" class="C"/><path d="M1825 320v7h1l-1-7m-783 1l1 1-1-1z" class="B"/><path d="M1057 321l1 1-1-1z" class="C"/><path d="M1093 321l1 1-1-1m18 0l1 1-1-1m442 0v7h1l-1-7m-1110 1v3h1l-1-3m208.333.667l.334.666-.334-.666z" class="B"/><path d="M1042 322v3h1l-1-3m14 0l1 6h1l-2-6z" class="C"/><path d="M1058 322l1 1-1-1z" class="B"/><path d="M1073 322l1 1-1-1z" class="C"/><path d="M1092 322l1 1-1-1m18 0l1 1-1-1m2 0l1 1-1-1m-439 1v3h1l-1-3z" class="B"/><path d="M1058 323l1 1-1-1m16 0l1 1-1-1m11 0l3 2v-1l-3-1z" class="C"/><path d="M1091 323l1 1-1-1z" class="B"/><path d="M1110 323l1 1-1-1z" class="C"/><path d="M1113 323l1 1-1-1m-648 1v4h1l-1-4z" class="B"/><path d="M1044 324l1 1-1-1z" class="C"/><path d="M1059 324l1 1-1-1m31 0l1 1-1-1m19 0l1 1-1-1z" class="B"/><path d="M1113 324l1 1-1-1z" class="C"/><path d="M650 325l1 1-1-1m391 0v5h1l-1-5z" class="B"/><path d="M1059 325v2h2l-2-2z" class="C"/><path d="M1072.33 325.667l.34.666-.34-.666M1089 325l1 1-1-1m19 0l1 1-1-1z" class="B"/><path d="M1110 325l1 1-1-1m2 0l1 1-1-1z" class="C"/><path d="M1114 325l1 1-1-1z" class="B"/><path d="M1077 326l1 1-1-1m10 0l-1 3 1-3z" class="C"/><path d="M1088 326l1 1-1-1z" class="B"/><path d="M1108 326l1 1-1-1m6 0l1 1-1-1z" class="C"/><path d="M649 327l1 1-1-1m23.333.667l.334.666-.334-.666z" class="B"/><path d="M1061 327l1 1-1-1m11 0l1 1-1-1m3 0l1 1-1-1z" class="C"/><path d="M1107 327l1 1-1-1z" class="B"/><path d="M1110 327l1 1-1-1z" class="C"/><path d="M1115.33 327.667l.34.666-.34-.666M442 328v3h1l-1-3z" class="B"/><path d="M1046 328l1 1-1-1m3 0v3h1l-1-3m11 0l1 1-1-1m2 0l2 2-2-2z" class="C"/><path d="M1063 328l1 1-1-1z" class="B"/><path d="M1071 328l1 1-1-1m12 0l1 1-1-1z" class="C"/><path d="M1106 328l1 1-1-1z" class="B"/><path d="M1113 328l1 1-1-1z" class="C"/><path d="M1850 328v8h1l-1-8m-1201.667 1.667l.334.666-.334-.666z" class="B"/><path d="M1043.67 329.333l.66.334-.66-.334M1058 329l1 1-1-1z" class="C"/><path d="M1064.67 329.333l.66.334-.66-.334M1069 329l1 1-1-1z" class="B"/><path d="M1070 329l1 1-1-1m5.33.667l.34.666-.34-.666z" class="C"/><path d="M1086.33 329.667l.34.666-.34-.666M1105 329l-1 2 1-2z" class="B"/><path d="M1109 329l-3 5 3 1v-6m6.33.667l.34.666-.34-.666z" class="C"/><path d="M466.333 330.667l.334.666-.334-.666m205 0l.334.666-.334-.666z" class="B"/><path d="M1042.33 330.667l.34.666-.34-.666m4 0l.34.666-.34-.666m10 0l.34.666-.34-.666M1066 332l3-2-3 2m16-2l-2 5h1l1-5m3 0v3h1l-1-3m20 0l1 1-1-1z" class="C"/><path d="M1578 330v7h1l-1-7m-930.667 1.667l.334.666-.334-.666z" class="B"/><path d="M1059 331l1 1-1-1m4.67.333l.66.334-.66-.334m4.33.667v1h3v1h-2v1l3-1-1-3-3 1z" class="C"/><path d="M1103 331l1 1-1-1z" class="B"/><path d="M1111 331l-1 2 1-2m2.33.667l.34.666-.34-.666z" class="C"/><path d="M1116 331v4h1l-1-4m-74 1l1 1-1-1z" class="B"/><path d="M1044 332l1 1-1-1m5 0l1 1-1-1m34 0l1 1-1-1m19 0v1h3l-3-1z" class="C"/><path d="M646.333 333.667l.334.666-.334-.666M670 333l1 1-1-1z" class="B"/><path d="M1043 333v1l4-1h-4m14.33.667l.34.666-.34-.666m1.67.333v1l5-1h-5m6-1l2 2-2-2z" class="C"/><path d="M1086 333l1 1-1-1m14 0l1 1-1-1z" class="B"/><path d="M1101 333l1 1-1-1z" class="C"/><path d="M467.333 334.667l.334.666-.334-.666M1043 334l1 1-1-1z" class="B"/><path d="M1086 334l1 1-1-1z" class="C"/><path d="M1099 334l1 1-1-1z" class="B"/><path d="M1102 334l1 1-1-1m2 0l2 2-2-2m7 0l-1 2 1-2z" class="C"/><path d="M1044 335l1 1-1-1z" class="B"/><path d="M1047.33 335.667l.34.666-.34-.666M1062 335v1h3v-1h-3m22 0l1 1-1-1m3 0l2 2-2-2z" class="C"/><path d="M1088 335l1 1-1-1m9 0l1 1-1-1z" class="B"/><path d="M1100.33 335.667l.34.666-.34-.666M1114 335l2 3-2-3z" class="C"/><path d="M1824 335v7h1l-1-7m-1155 1l1 1-1-1z" class="B"/><path d="M1045 336l2 2-2-2m4 0l1 1-1-1m11 0l1 1-1-1m8 0l1 1-1-1m4 0l-1 3h1v-3m6 0l1 1-1-1z" class="C"/><path d="M1089.67 336.333l.66.334-.66-.334m4 0l.66.334-.66-.334z" class="B"/><path d="M1095.67 336.333l.66.334-.66-.334z" class="C"/><path d="M1552 336v7h1l-1-7m-908 1l1 1-1-1m401 0l1 1-1-1m-577 1l1 1-1-1m200 0l1 1-1-1m364.67.333l.66.334-.66-.334M1046 338l1 1-1-1z" class="B"/><path d="M1065 338l1 1-1-1m12 0l2 3-2-3m11 0l1 1-1-1m3.67.333l.66.334-.66-.334M1095 338l1 1-1-1z" class="C"/><path d="M1115.33 338.667l.34.666-.34-.666M643 339l1 1-1-1m387 0l-1 2 1-2z" class="B"/><path d="M1034 339l1 1-1-1z" class="C"/><path d="M1035 339l1 1-1-1z" class="B"/><path d="M1047 339l1 3h1l-2-3m15 0l1 1-1-1z" class="C"/><path d="M667 340l1 1-1-1z" class="B"/><path d="M1030 340l1 1-1-1m1 1l2 3h3v-1l-2-3-3 1z" class="C"/><path d="M1036 340l2 2-2-2m11 0l1 1-1-1z" class="B"/><path d="M1050 340l1 1-1-1m40 0v1h3l-3-1m22 0l1 1-1-1m2 0l1 1-1-1z" class="C"/><path d="M442 341v4h1l-1-4m27 0l1 1-1-1m173 0l1 1-1-1z" class="B"/><path d="M1029 341l-1 3 1-3m6.67.333l.66.334-.66-.334M1052 341l2 3-2-3m42.67.333l.66.334-.66-.334z" class="C"/><path d="M1114 341l1 1-1-1m-473 1l1 1-1-1m25 0l1 1-1-1m362 0l1 1-1-1z" class="B"/><path d="M1037 342l1 1-1-1z" class="C"/><path d="M1048 342v4h1l-1-4z" class="B"/><path d="M1076 342l2 2-2-2m14 0l1 1-1-1m23 0l1 1-1-1m-81.67 1.667l.34.666-.34-.666z" class="C"/><path d="M1038 343l1 1-1-1z" class="B"/><path d="M1079 343l1 1-1-1m16 0l1 1-1-1z" class="C"/><path d="M1113 343l1 1-1-1m-643 1l1 1-1-1m170 0l1 1-1-1m387 0l1 1-1-1z" class="B"/><path d="M1038 344l1 1-1-1m27 0l1 1-1-1m42 0l-2 3 2-3m2 0l2 2-2-2m3 0l1 1-1-1z" class="C"/><path d="M1849 344v8h1l-1-8m-1185 1l1 1-1-1z" class="B"/><path d="M1027 345l1 1-1-1z" class="C"/><path d="M1039 345l1 1-1-1m73 0l1 1-1-1m-641 1l1 1-1-1m168 0l1 1-1-1m387 0l1 1-1-1z" class="B"/><path d="M1031 348l1 1 2-3-3 2z" class="C"/><path d="M1040 346l3 3-3-3z" class="B"/><path d="M1048 346l1 1-1-1m6.33.667l.34.666-.34-.666m12 0l.34.666-.34-.666z" class="C"/><path d="M1111 346l1 1-1-1m466 0v7h1l-1-7m-1133.667 1.667l.334.666-.334-.666M638 347l1 1-1-1m25 0l1 1-1-1z" class="B"/><path d="M1026 347v2h2l-2-2m3 0l1 1-1-1m6 0l1 3h1l-2-3m3 0l1 1-1-1m2 0l1 1-1-1z" class="C"/><path d="M1047 347l1 1-1-1z" class="B"/><path d="M1108 347l1 1-1-1z" class="C"/><path d="M1110 347l1 1-1-1m-637.667 1.667l.334.666-.334-.666M637 348l1 1-1-1m25 0l1 1-1-1z" class="B"/><path d="M1041 348l1 1-1-1z" class="C"/><path d="M1046 348l1 1-1-1z" class="B"/><path d="M1072 348l1 1-1-1m28.67.333l.66.334-.66-.334m5 0l.66.334-.66-.334z" class="C"/><path d="M1109 348l1 1-1-1m-84 1v3h1l-1-3z" class="B"/><path d="M1028 349l-1 3h3l-2-3m2 0l1 1-1-1m4.33.667l.34.666-.34-.666M1044 349l1 1-1-1m5.33.667l.34.666-.34-.666m46.34-.334l.66.334-.66-.334M1103 349l1 1-1-1z" class="C"/><path d="M1108 349l1 1-1-1m-663.667 1.667l.334.666-.334-.666m29 0l.334.666-.334-.666M636 350l1 1-1-1m25 0l1 1-1-1z" class="B"/><path d="M1039 350l1 1-1-1m4 0l-2 1v1l2-2m3 0l-1 2 1-2m7.33.667l.34.666-.34-.666z" class="C"/><path d="M1107 350l1 1-1-1m716 0v7h1l-1-7m-1188 1l1 1-1-1m25 0l1 1-1-1z" class="B"/><path d="M1031 351l1 1-1-1m5 0l1 1-1-1m21 0l1 1-1-1m44 0l1 1-1-1m4 0l1 1-1-1z" class="C"/><path d="M1106 351l1 1-1-1m445 0v8h1l-1-8m-1077 1l1 1-1-1m185 0l1 1-1-1z" class="B"/><path d="M1025 352v9h1l-1-9m68 1v1l4 1v-1l-1-2-3 1m11-1l1 1-1-1z" class="C"/><path d="M445 353l1 1-1-1m213 0l1 1-1-1z" class="B"/><path d="M1089 353l1 1-1-1m10 0l2 2v-2h-2m3 0l1 1-1-1z" class="C"/><path d="M1103 353l1 1-1-1m-628 1l1 1-1-1m158 0l1 1-1-1m18 0l1 1-1-1m5 0l1 1-1-1z" class="B"/><path d="M1061 354l1 1-1-1m30 0l1 1-1-1z" class="C"/><path d="M1101 354l1 1-1-1m-655 1l1 1-1-1m186 0l1 1-1-1m18 0l1 1-1-1z" class="B"/><path d="M1034.67 355.333l.66.334-.66-.334M1039 355l1 1-1-1m59 0l1 1-1-1z" class="C"/><path d="M1099 355l1 1-1-1m-652 1l1 1-1-1m29 0l1 1-1-1m155 0l1 1-1-1z" class="B"/><path d="M1059.33 356.667l.34.666-.34-.666M1069 356l1 1-1-1m27 0l1 1-1-1z" class="C"/><path d="M1097 356l1 1-1-1m-649 1l1 1-1-1z" class="B"/><path d="M1032.33 357.667l.34.666-.34-.666M1088 357l1 1-1-1m2 0v2h2l-2-2z" class="C"/><path d="M1094.67 357.333l.66.334-.66-.334M477 358l1 1-1-1m173 0v3h1l-1-3z" class="B"/><path d="M1067.33 358.667l.34.666-.34-.666z" class="C"/><path d="M1092 358l1 1-1-1m-614 1l1 1-1-1m151 0l1 1-1-1z" class="B"/><path d="M1034.33 359.667l.34.666-.34-.666M1070 359l1 1-1-1z" class="C"/><path d="M1089 359l1 1-1-1m-461 1l1 1-1-1z" class="B"/><path d="M1083 360v1h3l-3-1m4 0l-1 3h1v-3z" class="C"/><path d="M1088 360l1 1-1-1m760 0v8h1l-1-8m-1369 1l1 1-1-1m148 0l1 1-1-1m398 0v3h1l-1-3m62 0l1 1-1-1m-607 1l1 1-1-1m146 0l1 1-1-1m23 0l1 1-1-1z" class="B"/><path d="M1081 362l1 1-1-1m2 0l2 2v-2h-2z" class="C"/><path d="M1576 362v7h1l-1-7m-1122 1l1 1-1-1m27 0l1 1-1-1m144 0l1 1-1-1z" class="B"/><path d="M1026.33 363.667l.34.666-.34-.666m5 0l.34.666-.34-.666M1056 363l1 1-1-1z" class="C"/><path d="M1086 363l2 2-2-2m-462 1l1 1-1-1m24 0l1 1-1-1z" class="B"/><path d="M1033 364l1 1-1-1m3 0l2 2-2-2m9 0l1 1-1-1m41 0l1 1-1-1z" class="C"/><path d="M482 365l1 1-1-1m141 0l1 1-1-1m403.33.667l.34.666-.34-.666z" class="B"/><path d="M1082.67 365.333l.66.334-.66-.334m5 0l.66.334-.66-.334z" class="C"/><path d="M1089 365l1 1-1-1m733.33.667l.34.666-.34-.666M456 366l1 1-1-1m27 0l1 1-1-1m139 0l1 1-1-1m25 0l1 1-1-1z" class="B"/><path d="M1085 366l1 1-1-1m6.67.333l.66.334-.66-.334z" class="C"/><path d="M1093 366v1h10l-10-1z" class="B"/><path d="M1103 366v1h5l-5-1z" class="C"/><path d="M1108 366l1 1-1-1m442 0v7h1l-1-7m-1093 1l1 1-1-1m27 0l1 1-1-1m137 0l1 1-1-1m25 0l1 1-1-1z" class="B"/><path d="M1027 367l1 1-1-1m7.67.333l.66.334-.66-.334M1038 367l1 1-1-1m8 0l2 2-2-2m35 0l1 1-1-1m9 0l1 1-1-1m19 0l1 1-1-1z" class="C"/><path d="M1622 367l-5.99 140 3.99 86 12-2c-7.13-38.295-10.67-79.071-8.96-118 1.55-35.469 8.17-70.617 10.96-106h-12m68 0l-1.96 97 7.12 65 6.25 43 .59 17v1l10 1c-9.48-74.609-13-148.762-13-224h-9m62 0l8 216c2.61-.394 6.07-.722 7.4-3.419 2.21-4.509.22-11.843-.23-16.581-.95-9.936-.29-20.094-1.59-30-7.19-54.695-5.58-110.946-5.58-166h-8m57 0v1h7l-7-1m-1324 1l1 1-1-1m135 0l1 1-1-1m25 0l1 1-1-1m382 0l1 1-1-1z" class="B"/><path d="M1052.67 368.333l.66.334-.66-.334M1061 368l1 1-1-1z" class="C"/><path d="M1110 368l1 1-1-1m682 0v1h8l-8-1m-1333.667 1.667l.334.666-.334-.666M486 369l1 1-1-1m133 0l1 1-1-1z" class="B"/><path d="M1028.67 369.333l.66.334-.66-.334M1031 369l-1 2 1-2m32 0l1 1-1-1m4.67.333l.66.334-.66-.334M1107 369l3 4-3-4m3 0l1 1-1-1z" class="C"/><path d="M1785 369l1 1-1-1m-1167 1l1 1-1-1m410 0l1 1-1-1z" class="B"/><path d="M1050 370l1 1-1-1m10 0v1l4 1v-1l-4-1m45.33.667l.34.666-.34-.666z" class="C"/><path d="M1111 370v4h1l-1-4m-494 1l1 1-1-1z" class="B"/><path d="M1029 371l1 1-1-1z" class="C"/><path d="M459.333 372.667l.334.666-.334-.666M1029 372l1 1-1-1z" class="B"/><path d="M1031 372l1 1-1-1m10.67.333l.66.334-.66-.334M1051 372l1 1-1-1m16 0v1h3l-3-1z" class="C"/><path d="M614 373l1 1-1-1z" class="B"/><path d="M1030 373l1 1-1-1m76 0l-2 2 2 5-3 1v1l5-3v-1l-2-5z" class="C"/><path d="M1785 373v5h1l-1-5m-1294 1l1 1-1-1m122 0l1 1-1-1m26 0l1 1-1-1z" class="B"/><path d="M1031 374l1 1-1-1m40 0l1 1-1-1m39.33.667l.34.666-.34-.666z" class="C"/><path d="M460.333 375.667l.334.666-.334-.666M492 375l1 1-1-1m120 0l1 1-1-1m26 0l1 1-1-1m393 0l1 1-1-1m-538 1l1 1-1-1m117 0l1 1-1-1m27 0l1 1-1-1m395 0l1 1-1-1z" class="B"/><path d="M1035 376l1 1-1-1m8.67.333l.66.334-.66-.334M1108 376l1 1-1-1z" class="C"/><path d="M1110 376l1 1-1-1m-616 1l1 1-1-1m115 0l1 1-1-1z" class="B"/><path d="M1033 377l2 2v-2h-2m5 0l1 2-3-1v1l4 2-2-4z" class="C"/><path d="M1105 377l2 2-2-2z" class="D"/><path d="M1109 377l1 1-1-1z" class="C"/><path d="M461 378l1 1-1-1m34 0l1 1-1-1m113 0l1 1-1-1m26 0l1 1-1-1z" class="B"/><path d="M1048 378l1 1-1-1m16 0l1 1-1-1z" class="C"/><path d="M1109 378l1 1-1-1m738 0v6h1l-1-6m-1241 1l1 1-1-1m27 0l1 1-1-1z" class="B"/><path d="M1035 379l1 1-1-1m73 0l1 1-1-1z" class="C"/><path d="M1575 379v3h1l-1-3m-1113 1l1 1-1-1m36 0l1 1-1-1m107 0l1 1-1-1m26 0l1 1-1-1z" class="B"/><path d="M1036 380l1 1-1-1m34 0v1h4l-4-1m24 0v1h5l-5-1m13 0l-3 4 3-4m-802 1l1 1-1-1z" class="C"/><path d="M499 381l1 1-1-1m104 0l1 1-1-1m27 0l1 1-1-1z" class="B"/><path d="M1037 381l1 1-1-1m27 0l1 1-1-1z" class="C"/><path d="M1107 381l1 1-1-1z" class="B"/><path d="M287 382l1 1-1-1z" class="C"/><path d="M463 382l1 1-1-1m38 0l1 1-1-1m100.667.333l.666.334-.666-.334M629 382l1 1-1-1m409 0l1 1-1-1z" class="B"/><path d="M1040.33 382.667l.34.666-.34-.666M1053 382l1 1-1-1m14 0v1h3l-3-1m5 0v1h3l-3-1m20.67.333l.66.334-.66-.334m4 0l.66.334-.66-.334z" class="C"/><path d="M1106 382l1 1-1-1m443 0v8h1l-1-8m31 0v24h1l-1-24m-1078 1l1 1-1-1m98 0l1 1-1-1m27 0l1 1-1-1m412 0l1 1-1-1z" class="B"/><path d="M1079 383l2 2-2-2z" class="C"/><path d="M464 384l1 1-1-1m40 0l1 1-1-1m94 0l1 1-1-1m28 0l1 1-1-1z" class="B"/><path d="M1041 384l1 1-1-1m11 0l1 1-1-1m4 0l1 1-1-1m27.67.333l.66.334-.66-.334M1088 384l-1 2 1-2m4 0l1 1-1-1m5 0l1 1-1-1m3 0l1 1-1-1m2 0l-1 2 1-2z" class="C"/><path d="M1103 384l1 1-1-1m-638 1l1 1-1-1m41 0l1 1-1-1m90 0l1 1-1-1m446 0l1 1-1-1z" class="B"/><path d="M1043 385l1 1-1-1m11 0l1 1-1-1m4.67.333l.66.334-.66-.334M1090 385l-1 2 1-2m5 0l1 1-1-1z" class="C"/><path d="M1102 385l1 1-1-1m684 0v5h1l-1-5m-1320 1l1 1-1-1m41.667.333l.666.334-.666-.334M594 386l1 1-1-1m29 0l1 1-1-1m421 0l1 1-1-1z" class="B"/><path d="M1050 388l3-1-3 1m13-2l1 1-1-1m36 0l1 1-1-1z" class="C"/><path d="M1100 386l1 1-1-1m-633 1l1 1-1-1m43 0l1 1-1-1m82.667.333l.666.334-.666-.334M622 387l1 1-1-1m423 0l1 1-1-1z" class="B"/><path d="M1061 387l1 1-1-1m24.67.333l.66.334-.66-.334M1097 387l1 1-1-1z" class="C"/><path d="M1098 387l1 1-1-1m-630 1l1 1-1-1m44 0l1 1-1-1m78 0l1 1-1-1m454 0v4l-2 3-2 3-2 3-2 3h1l1-5 2-3 2-3 4-4-2-1m2 0l1 1-1-1m2 0l1 1-1-1z" class="B"/><path d="M1049 388l1 1-1-1m3 0l-1 2h2l-1-2m28 0l1 1-1-1m14 0l1 1-1-1z" class="C"/><path d="M1095.67 388.333l.66.334-.66-.334z" class="B"/><path d="M269 389l1 1-1-1z" class="C"/><path d="M470 389l1 1-1-1m44 0l1 1-1-1m74 0l1 1-1-1m31 0l1 1-1-1m431 0l1 1-1-1z" class="B"/><path d="M1056 389v1h3l-3-1m27.67.333l.66.334-.66-.334m8 0l.66.334-.66-.334z" class="C"/><path d="M1093 389l1 1-1-1m723 0v1h5l-5-1m-1345 1l1 1-1-1m45.667.333l.666.334-.666-.334m69 0l.666.334-.666-.334M618 390l1 1-1-1z" class="B"/><path d="M1044 390l1 1-1-1z" class="C"/><path d="M1053.67 390.333l.66.334-.66-.334z" class="B"/><path d="M1055 390l1 1-1-1m5 0l-1 2h2l-1-2m3 0l1 1-1-1m24.67.333l.66.334-.66-.334z" class="C"/><path d="M1089.67 390.333l.66.334-.66-.334M1802 390v1h6l-6-1m-1329 1l1 1-1-1m46 0l1 1-1-1m63.667.333l.666.334-.666-.334M616 391l1 1-1-1z" class="B"/><path d="M1043 391l1 1-1-1z" class="C"/><path d="M1056 391v1h3l-3-1z" class="B"/><path d="M1082.67 391.333l.66.334-.66-.334z" class="C"/><path d="M1084 391v1h3l-3-1m703 0v1h6l-6-1m-1311.333 1.333l.666.334-.666-.334m47 0l.666.334-.666-.334m57 0l.666.334-.666-.334m35 0l.666.334-.666-.334M1061 392v1h4l-4-1z" class="B"/><path d="M1065 392v1h13l-13-1z" class="C"/><path d="M1078 392v1h4l-4-1m-599.333 1.333l.666.334-.666-.334m47 0l.666.334-.666-.334m51 0l.666.334-.666-.334M613 393l1 1-1-1z" class="B"/><path d="M1042 393l1 1-1-1z" class="C"/><path d="M1846 393v7h1l-1-7z" class="B"/><path d="M265 394l1 1-1-1z" class="C"/><path d="M529.667 394.333l.666.334-.666-.334m43 0l.666.334-.666-.334M603 394l1 1-1-1m7 0l1 1-1-1z" class="B"/><path d="M1041 394l1 1-1-1m-778 1l-1 2 1-2z" class="C"/><path d="M488 395l1 1-1-1m46 0v1h3l-3-1m32 0v1h4l-4-1m34 0l1 1-1-1m6.667.333l.666.334-.666-.334M540 396v1h7l-7-1m16 0v1h7l-7-1z" class="B"/><path d="M1040 396l1 1-1-1z" class="C"/><path d="M1820 396v8h1l-1-8m-1331 1l1 1-1-1m110 0l1 1-1-1z" class="B"/><path d="M1039 397l1 1-1-1m-776 1l-1 2 1-2z" class="C"/><path d="M490 398l1 1-1-1m1058 0v7h1l-1-7m-950 1l1 1-1-1z" class="B"/><path d="M1038 399l1 1-1-1z" class="C"/><path d="M491 400l1 1-1-1m106 0l1 1-1-1z" class="B"/><path d="M1037 400l1 1-1-1z" class="C"/><path d="M492 401l1 1-1-1z" class="B"/><path d="M258 402l1 1-1-1z" class="C"/><path d="M493 402l1 1-1-1z" class="B"/><path d="M1036 402l1 1-1-1z" class="C"/><path d="M494 403l1 1-1-1m1 1l1 1-1-1m1 1l1 1-1-1m96 0l1 1-1-1m-95 1l1 1-1-1m94 0l1 1-1-1m-1 1l1 1-1-1m-90 1l1 1-1-1m88 0l1 1-1-1m-86 1l1 1-1-1m84 0l1 1-1-1m1259 0v7h1l-1-7m-1340.333 1.333l.666.334-.666-.334M584 410l1 1-1-1m989 0v8h1l-1-8m-1065.333 1.333l.666.334-.666-.334M581 411l1 1-1-1m-70 1v1h5l-5-1m63 0v1h4l-4-1m1245 0v7h1l-1-7m-272 1v7h1l-1-7z" class="B"/><path d="M308 425l1 1-1-1z" class="C"/><path d="M1844 425v8h1l-1-8z" class="B"/><path d="M244 426l1 1-1-1z" class="C"/><path d="M1572 426v8h1l-1-8m246 1v7h1l-1-7z" class="B"/><path d="M306 428l-1 2 1-2z" class="C"/><path d="M1546 429v6h1l-1-6z" class="B"/><path d="M297 433l1 1-1-1m5 0l1 1-1-1m-4 4l1 1-1-1z" class="C"/><path d="M1817 442v8h1l-1-8m26 0v7h1l-1-7z" class="B"/><path d="M236 443l1 1-1-1z" class="C"/><path d="M1571 443v7h1l-1-7m-26 1v7h1l-1-7z" class="B"/><path d="M238 445l1 1-1-1z" class="C"/><path d="M1816 458v6h1l-1-6m26 0v7h1l-1-7m-298 1v7h1l-1-7m26 0v7h1l-1-7z" class="B"/><path d="M272 469l1 1-1-1z" class="C"/><path d="M668 486l13.576 77 25 139 9.227 52 4.761 17.933 9.436.082 27-1.011L864 767l-5 81 55-5.17 81-6.83-17-73c40.63-.027 81.38-3.99 122-4.985 10.67-.262 21.35-1.015 32-1.015 3.64 0 10.34 1.263 13.44-1.028 4.09-3.034 3.27-14.349 3.65-18.972 1.33-16.637 3.08-33.46 5.33-50 9.67-71.022 16.94-143.542 22.58-215-74.34 5.868-149.48 2.776-224 6.039C858.332 482.185 762.772 486 668 486m1147-13v8h1l-1-8m-272 1v7h1l-1-7m298 0v7h1l-1-7m-272 1v7h1l-1-7z" class="B"/><path d="M259 485l1 1-1-1z" class="C"/><path d="M1814 489v7h1l-1-7m-272 1v7h1l-1-7m298 0v8h1l-1-8m-272 1v8h1l-1-8z" class="B"/><path d="M1090 498v1h21l-21-1z" class="C"/><path d="M691 506c.53 12.316 4.387 24.872 6.576 37l15.621 82c7.819 40.535 11.364 84.663 23.803 124l53-2.015 86-3.024L1115 735l27-237-451 8z" class="D"/><path d="M1037 499v1h19l-19-1m-59 1v1h22l-22-1m-50 1v1h22l-22-1m-59 1v1h19l-19-1m272.33.667l.34.666-.34-.666M249 503l1 1-1-1m565 0v1h18l-18-1m-56 1v1h20l-20-1z" class="C"/><path d="M1813 504v7h1l-1-7z" class="B"/><path d="M703 505v1h20l-20-1z" class="C"/><path d="M1541 505v7h1l-1-7z" class="B"/><path d="M690 506l1 1-1-1z" class="C"/><path d="M1839 507v7h1l-1-7m-272 1v7h1l-1-7z" class="B"/><path d="M1140 510v3h1l-1-3m-448.667 1.667l.334.666-.334-.666m1 5l.334.666-.334-.666M1139 519v3h1l-1-3z" class="C"/><path d="M1540 520v7h1l-1-7m272 0v7h1l-1-7z" class="B"/><path d="M235 521l1 1-1-1m458.333.667l.334.666-.334-.666z" class="C"/><path d="M1838 522v8h1l-1-8m-272 1v9h1l-1-9z" class="B"/><path d="M694.333 526.667l.334.666-.334-.666M233 527l1 1-1-1m905 1v3h1l-1-3m-442.667 4.667l.334.666-.334-.666z" class="C"/><path d="M1811 534v8h1l-1-8m-272 1v8h1l-1-8z" class="B"/><path d="M1137 536v3h1l-1-3m-440.667 1.667l.334.666-.334-.666z" class="C"/><path d="M1837 539v7h1l-1-7m-272 1v7h1l-1-7z" class="B"/><path d="M697.333 542.667l.334.666-.334-.666M1136 545v3h1l-1-3m-437.667 3.667l.334.666-.334-.666z" class="C"/><path d="M1810 550v7h1l-1-7m-272 2v6h1l-1-6z" class="B"/><path d="M699.333 553.667l.334.666-.334-.666M1135 554v3h1l-1-3z" class="C"/><path d="M1836 554v8h1l-1-8m-272 2v7h1l-1-7z" class="B"/><path d="M700.333 558.667l.334.666-.334-.666M216 562v1h4l-4-1z" class="C"/><path d="M117 563l1 1-1-1z" class="B"/><path d="M118.044 563.742c-5.575 2.272-6.24 10.003 0 11.824 10.136 2.958 24.404.434 34.956.434h77c8.51 0 29.964 3.858 36.718-1.603 3.875-3.134 2.641-8.828-1.773-10.655-6.743-2.79-17.717-.742-24.945-.742h-85c-10.455 0-27.244-3.216-36.956.742z" class="E"/><path d="M265 563l1 1-1-1z" class="B"/><path d="M701.333 563.667l.334.666-.334-.666M1134 563v3h1l-1-3z" class="C"/><path d="M115 564l1 1-1-1m152 0l1 1-1-1m-153 1l1 1-1-1m1695 0v4h1l-1-4m-272 1v8h1l-1-8m-1424 1l1 1-1-1m156.333.667l.334.666-.334-.666z" class="B"/><use xlink:href="#B" x="49" y="252" class="C"/><path d="M1804 569v1h5l-5-1m-1534.667 1.667l.334.666-.334-.666M1801 570l1 1-1-1z" class="B"/><path d="M1133 571v3h1l-1-3z" class="C"/><path d="M1835 571v7h1l-1-7m-1722 1l1 1-1-1m1450 0v7h1l-1-7m238 0v4h1l-1-4m-1533 1l1 1-1-1m-1 1l1 1-1-1z" class="B"/><use xlink:href="#B" x="50" y="257" class="C"/><path d="M116 575l1 1-1-1m150 0l1 1-1-1m-148 1v1h146c-11.456-4.807-31.532-1-44-1H118z" class="B"/><use xlink:href="#B" x="51" y="262" class="C"/><path d="M1778 579v1h9l-9-1z" class="B"/><path d="M1132 580v3h1l-1-3z" class="C"/><path d="M1771 580v1h3l-3-1m21.67.333l.66.334-.66-.334m4 1l.66.334-.66-.334M1536 582v6h1l-1-6z" class="B"/><path d="M1763 582l1 1-1-1z" class="C"/><path d="M1800 582l1 1-1-1m-221 1v1h4l-4-1z" class="B"/><path d="M1760 583l1 1-1-1z" class="C"/><path d="M1563 584v1h7l-7-1m20 0l1 1-1-1m78 0v1h3l-3-1m15 0v1h4l-4-1m83 0l1 1-1-1z" class="B"/><use xlink:href="#B" x="52" y="268" class="C"/><path d="M1584 585l1 1-1-1m71.67.333l.66.334-.66-.334m29 0l.66.334-.66-.334M1757 585l1 1-1-1m-106.33 1.333l.66.334-.66-.334m39 0l.66.334-.66-.334M1755 586l1 1-1-1m79 0v8h1l-1-8m-247 1l1 1-1-1m59.67.333l.66.334-.66-.334m47 0l.66.334-.66-.334M1753 587l1 1-1-1m-110.33 1.333l.66.334-.66-.334M1698 588l1 1-1-1m53 0l1 1-1-1z" class="B"/><path d="M1131 589v3h1l-1-3z" class="C"/><path d="M1590 589l1 1-1-1m48.67.333l.66.334-.66-.334M1749 589l1 1-1-1z" class="B"/><use xlink:href="#B" x="53" y="273" class="C"/><path d="M1592.67 590.333l.66.334-.66-.334m42 0l.66.334-.66-.334m112 0l.66.334-.66-.334M1595 591l1 1-1-1z" class="B"/><path d="M1626 591l1 1-1-1m3.67.333l.66.334-.66-.334z" class="C"/><path d="M1712 591l1 1-1-1m32 0l1 1-1-1m-145.33 1.333l.66.334-.66-.334z" class="B"/><path d="M1622 592l1 1-1-1z" class="C"/><path d="M1715 592v1h3l-3-1m24.67.333l.66.334-.66-.334M1795 592v1h8l-8-1z" class="B"/><path d="M1562 609l-3.09 47-6.91 105 246-15c0-51.008 5.99-103.155 10-154l-246 17z" class="F"/><path d="M1603 593v1h4l-4-1m14 0v1h3l-3-1m106 0v1h13l-13-1m57 0v1h8l-8-1m-13 1v1h6l-6-1z" class="B"/><use xlink:href="#B" x="54" y="278" class="C"/><path d="M1751 595v1h7l-7-1m-14 1v1h7l-7-1m70 0v7h1l-1-7m-272 1v8h1l-1-8m187 0v1h7l-7-1z" class="B"/><path d="M1130 598v3h1l-1-3z" class="C"/><path d="M1707 598v1h7l-7-1m-14 1v1h7l-7-1z" class="B"/><use xlink:href="#B" x="55" y="283" class="C"/><path d="M1678 600v1h7l-7-1m-15 1v1h7l-7-1m-15 1v1h8l-8-1m-14 1v1h6l-6-1m199 0v8h1l-1-8m-214 1v1h7l-7-1m-14 1v1h6l-6-1z" class="B"/><path d="M709 606l1 1-1-1m420 0v4h1l-1-4z" class="C"/><path d="M1589 606v1h7l-7-1m-13 1v1h6l-6-1m-14 1v1h5l-5-1m-1 1v3h1l-1-3z" class="B"/><use xlink:href="#B" x="57" y="294" class="C"/><path d="M1534 612v8h1l-1-8m272 0v7h1l-1-7z" class="B"/><path d="M1128 615v3h1l-1-3m-416.667 1.667l.334.666-.334-.666z" class="C"/><path d="M1832 619v8h1l-1-8m-272 1v8h1l-1-8z" class="B"/><path d="M712.333 621.667l.334.666-.334-.666M1127 624v3h1l-1-3m-414 2v3h1l-1-3z" class="C"/><path d="M1805 627v7h1l-1-7m-272 1v8h1l-1-8M242 805c20.628.002 42.459.215 63 2.17 6.965.663 23.335 4.01 29.363-.198 5.112-3.569 6.935-13.086 10.966-17.972 10.829-13.127 27.744-20.373 32.512-38 3.573-13.207-5.916-31.434-21.841-27.042-13.543 3.734-12.455 21.812-17.825 32.042-5.348 10.189-17.919 16.729-28.175 21 5.659-27.343 27.659-47.074 34.101-74 2.994-12.513 2.33-30.836-4.58-41.985-8.973-14.478-28.187-8.081-37.003 2.989-14.877 18.68-11.316 39.682-16.417 60.996-3.813 15.934-13.897 29.098-20.101 44-6.079-9.88-5.776-22.661-11.324-33-6.456-12.032-18.509-19.324-19.586-34-1.198-16.333 3.936-32.593 3.91-49-.013-7.861-1.473-18.101-9.093-22.427-6.405-3.637-12.466.671-16.723 5.432-8.389 9.383-14.877 22.25-15.169 34.995-.326 14.181 9.048 23.01 12.375 36 3.387 13.221-1.564 26.071 5.099 39C226.092 766.573 242 780.494 242 805z" class="B"/><path d="M714.333 632.667l.334.666-.334-.666M1126 633v3h1l-1-3z" class="C"/><path d="M1831 636v7h1l-1-7z" class="B"/><use xlink:href="#B" x="62" y="320" class="C"/><path d="M1559 637v7h1l-1-7z" class="B"/><path d="M716.333 642.667l.334.666-.334-.666m408.997 0l.34.666-.34-.666z" class="C"/><path d="M1804 642v8h1l-1-8m-272 1v8h1l-1-8z" class="B"/><path d="M717.333 648.667l.334.666-.334-.666M1124 650v3h1l-1-3z" class="C"/><path d="M1830 651v8h1l-1-8m-272 1v8h1l-1-8z" class="B"/><use xlink:href="#B" x="65" y="336" class="C"/><path d="M1269 657l1 1-1-1z" class="B"/><path d="M1355 730c-.83-19.215-4.36-40.12-19.04-53.826-35.1-32.773-106.55-24.092-125.13 22.826-4.59 11.575-2.55 23.127-.99 35 2.82 21.402 6.93 42.829 11.16 64 1.82 9.081 2.75 24.824 9.28 31.787 5.08 5.42 13.9 7.615 20.72 9.88 20.43 6.786 45.29 10.032 66 2.635 13.04-4.659 22.6-14.012 28.73-26.302 2.31-4.632 3.09-10.608 6.11-14.791 7.53-10.418 19.7-16.463 26.71-28.209 7.03-11.787 11.09-27.274 7.92-41-2.52-10.889-12.79-16.001-22.47-10.005-3.42 2.116-6.17 5.188-9 8.005z" class="E"/><path d="M1293 657l1 1-1-1z" class="B"/><use xlink:href="#B" x="66" y="341" class="C"/><path d="M1263 658l1 1-1-1m36 0l1 1-1-1m504 0v6h1l-1-6z" class="B"/><path d="M1123 659v3h1l-1-3z" class="C"/><path d="M1531 659v7h1l-1-7m-276 1l1 1-1-1m52 0l1 1-1-1m3 1l1 1-1-1m-61 1l1 1-1-1m64 0l1 1-1-1m-66 1l1 1-1-1z" class="B"/><use xlink:href="#B" x="67" y="347" class="C"/><path d="M1240 666l1 1-1-1z" class="B"/><path d="M1122 668v3h1l-1-3z" class="C"/><path d="M1325 668l1 1-1-1m504 0v7h1l-1-7z" class="B"/><use xlink:href="#B" x="68" y="352" class="C"/><path d="M1557 669v8h1l-1-8m-229 1l1 1-1-1m474 2v8h1l-1-8m-470 1l1 1-1-1z" class="B"/><use xlink:href="#B" x="69" y="357" class="C"/><path d="M1530 674v7h1l-1-7z" class="B"/><path d="M1121 676v4h1l-1-4z" class="C"/><path d="M1226 676l1 1-1-1m-1 1l1 1-1-1m-1 1l1 1-1-1m-1 1l1 1-1-1z" class="B"/><path d="M723 680l1 1-1-1z" class="C"/><path d="M1222 680l1 1-1-1m118 1l1 1-1-1m488 3v8h1l-1-8z" class="B"/><path d="M724 685l1 1-1-1m396 0v3h1l-1-3z" class="C"/><path d="M1218 685l1 1-1-1m338 0v8h1l-1-8m-211 3l1 1-1-1m456 0v7h1l-1-7m-272 1v7h1l-1-7z" class="B"/><use xlink:href="#B" x="72" y="373" class="C"/><path d="M1214 691l1 1-1-1m133 1l1 1-1-1m-134 1l1 1-1-1z" class="B"/><path d="M1119 694v3h1l-1-3z" class="C"/><path d="M1348 694l1 1-1-1z" class="B"/><use xlink:href="#B" x="73" y="378" class="C"/><path d="M1211 697l1 1-1-1m616 3v8h1l-1-8z" class="B"/><path d="M727 701l1 1-1-1z" class="C"/><path d="M1555 701v8h1l-1-8z" class="B"/><path d="M1118 703v3h1l-1-3z" class="C"/><path d="M1351 703l1 1-1-1m177 1v8h1l-1-8m272 0v6h1l-1-6z" class="B"/><path d="M728 706l1 1-1-1z" class="C"/><path d="M1352 709l1 1-1-1z" class="B"/><path d="M729.333 711.667l.334.666-.334-.666M1117 712v3h1l-1-3z" class="C"/><path d="M1207 714v6h1l-1-6z" class="B"/><use xlink:href="#B" x="77" y="399" class="C"/><path d="M1826 716v8h1l-1-8m-473 1l1 1-1-1m201 0v8h1l-1-8m-185 2l1 1-1-1m430 0v7h1l-1-7z" class="B"/><path d="M1116 720v3h1l-1-3z" class="C"/><path d="M1527 720v7h1l-1-7z" class="B"/><use xlink:href="#B" x="78" y="404" class="C"/><path d="M1381 722l1 1-1-1m-27 2l1 1-1-1z" class="B"/><path d="M732 726v3h1l-1-3m383 3v3h1l-1-3z" class="C"/><path d="M1209 731l1 1-1-1z" class="B"/><use xlink:href="#B" x="80" y="415" class="C"/><path d="M1825 732v8h1l-1-8m-272 2v7h1l-1-7m245 0v7h1l-1-7z" class="B"/><path d="M1102 735v1h10l-10-1m-28 1v1h10l-10-1z" class="C"/><path d="M1526 736v7h1l-1-7z" class="B"/><path d="M734.333 737.667l.334.666-.334-.666M1046 737v1h10l-10-1z" class="C"/><path d="M1356 779c8.6-5.38 17.04-14.378 17.91-25 .58-7.137-2.16-21.597-12.82-15.82-8.53 4.623-5.09 31.818-5.09 40.82z" class="F"/><path d="M1368 737l1 1-1-1z" class="B"/><path d="M1019 738v1h9l-9-1m-28 1v1h9l-9-1z" class="C"/><path d="M1387 739v7h1l-1-7z" class="B"/><path d="M963 740v1h9l-9-1m-27 1v1h8l-8-1m-200.667 1.667l.334.666-.334-.666M907 742v1h10l-10-1m-27 1v1h8l-8-1m-29 1v1h10l-10-1z" class="C"/><path d="M1211 744l1 1-1-1z" class="B"/><path d="M824 745v1h8l-8-1m-29 1v1h10l-10-1z" class="C"/><path d="M1791 746v1h7l-7-1z" class="B"/><path d="M768 747v1h8l-8-1z" class="C"/><path d="M1774 747v1h8l-8-1z" class="B"/><path d="M736 748l1 1-1-1m3 0v1h12l-12-1z" class="C"/><path d="M1374 748v4h1l-1-4m385 0v1h7l-7-1m-17 1v1h9l-9-1m82 0v7h1l-1-7m-612 1l1 1-1-1m144.33.667l.34.666-.34-.666M1552 750v7h1l-1-7m174 0v1h7l-7-1m-201 1v7h1l-1-7m185 0v1h8l-8-1m-324 1l1 1-1-1m308 0v1h7l-7-1m-16 1v1h8l-8-1m-16 1v1h7l-7-1m-16 1v1h7l-7-1m-433 1l1 1-1-1m416 0v1h8l-8-1m-15 1v1h7l-7-1m-17 1v1h8l-8-1m-16 1v1h8l-8-1m-15 1v1h6l-6-1m-210 1v3h1l-1-3m196 0v1h6l-6-1m-338 1l1 1-1-1m609 3v7h1l-1-7m-299 1v7h1l-1-7m258 3v1h7l-7-1m14 0v3h1l-1-3m-28 1v1h7l-7-1m-14 1v1h6l-6-1m-15 1v1h7l-7-1m-523 1l1 1-1-1m508 0v1h7l-7-1m-15 1v1h7l-7-1m-14 1v1h6l-6-1m-336 1l1 1-1-1m321 0v1h7l-7-1m-14 1v1h6l-6-1m-311 1l1 1-1-1m295 0v1h8l-8-1m-15 1v1h8l-8-1m-14 1v1h7l-7-1m-14 1v1h6l-6-1m188 0v7h1l-1-7m27 0v7h1l-1-7m-451 1l1 1-1-1m152 0v7h1l-1-7m69 0v1h6l-6-1m-15 1v1h6l-6-1m-15 1v1h7l-7-1m-247 1l1 1-1-1z" class="B"/><path d="M1316 785.532c-10.89 2.576-17.91 13.522-29 15.935-7.87 1.714-18.88-5.438-25.7.967-5.68 5.334-2 14.662 3.74 18.203 9.23 5.684 22.73 5.536 32.96 3.127 10.8-2.543 22.79-8.346 27.86-18.764 4.35-8.945 3-22.509-9.86-19.468z" class="F"/><path d="M1324 785l1 1-1-1m227 0v1h3l-3-1m-1 1v4h1l-1-4m-241 2l1 1-1-1m-3 2l1 1-1-1m-643 1l1 1-1-1z" class="B"/><path d="M664.058 791.851c-6.801 2.029-6.874 26.015 2.837 23.671 7.075-1.707 6.57-26.477-2.837-23.671z" class="C"/><path d="M667 791l1 1-1-1m-6 1l1 1-1-1m8 0l1 1-1-1m659 0v3h1l-1-3m-668 1l1 1-1-1m10 0l1 1-1-1m-31 1l-2 3 2-3z" class="B"/><path d="M640.108 795.072c-7.499 3.72-5.218 28.725 4.664 22.896 5.955-3.514 4.793-27.588-4.664-22.896z" class="C"/><path d="M644 794l1 1-1-1m655 1l1 1-1-1m59 0l1 1-1-1m-687 1v15h1l-1-15m1123 0v7h1l-1-7m-1178 1v1h3l-3-1m31.333.667l.334.666-.334-.666M659 797v3h1l-1-3m637 0l1 1-1-1m226 0v7h1l-1-7m299 0v8h1l-1-8m-1207 1l-2 3 2-3z" class="B"/><path d="M615.148 799.043c-5.983 3.329-4.78 27.678 4.705 22.734 5.973-3.114 5.21-28.249-4.705-22.734z" class="C"/><path d="M620 798l1 1-1-1m16 0l1 1-1-1m632 1l1 1-1-1m281 0v7h1l-1-7m-286 1l1 1-1-1m24 1l1 1-1-1m-664 1v16h1l-1-16m703 1l1 1-1-1m24 0l1 1-1-1m-92 4l1 1-1-1m-599 1v3h1l-1-3m564 1l1 1-1-1m35 2l1 1-1-1m535 0v8h1l-1-8m-272 1v8h1l-1-8m-861 1l1 1-1-1m10 0l1 1-1-1m554 0l1 1-1-1m596 0v8h1l-1-8m-1183.667 1.667l.334.666-.334-.666M1259 814l1 1-1-1m-612 1l1 1-1-1m15 0l1 1-1-1m6 0l1 1-1-1m880 0v7h1l-1-7m-884 1v1h3l-3-1m-27 1l1 1-1-1m9 0l1 1-1-1m-8 1l1 1-1-1m7 0l1 1-1-1m-33 1l1 1-1-1m29 0v1h3l-3-1m-19 1l1 1-1-1m-9 1l1 1-1-1m8 0l1 1-1-1m605 0l1 1-1-1m40 0l1 1-1-1m76 0l1 1-1-1m-727 1l1 1-1-1m4 0l1 1-1-1m649 0l1 1-1-1m3 1l1 1-1-1m521 4v6h1l-1-6m-272 1v6h1l-1-6m-184 1l1 1-1-1m-667 1v1h4l-4-1z" class="B"/><path d="M673.667 830.333l.666.334-.666-.334z" class="C"/><path d="M610 837v1l67-6-17-.025L610 837z" class="D"/><path d="M676 830l1 1-1-1z" class="C"/><path d="M1819 830v7h1l-1-7m-1159 1v1h3l-3-1z" class="B"/><path d="M663.667 831.333l.666.334-.666-.334z" class="C"/><path d="M1547 831v7h1l-1-7m-897 1v1h3l-3-1z" class="B"/><path d="M653.667 832.333l.666.334-.666-.334m17 0l.666.334-.666-.334z" class="C"/><path d="M672 832v1h3l-3-1m661 0l1 1-1-1m-694 1v1h4l-4-1z" class="B"/><path d="M643.667 833.333l.666.334-.666-.334m17 0l.666.334-.666-.334z" class="C"/><path d="M662 833v1h4l-4-1m-34 1v1h4l-4-1z" class="B"/><path d="M632.667 834.333l.666.334-.666-.334M650 834v1h3l-3-1z" class="C"/><path d="M653 834v1h3l-3-1m-38 1v1h5l-5-1z" class="B"/><path d="M620 835v1h3l-3-1m20.667.333l.666.334-.666-.334z" class="C"/><path d="M642 835v1h4l-4-1z" class="B"/><path d="M610 836l1 1-1-1m19.667.333l.666.334-.666-.334z" class="C"/><path d="M631 836v1h4l-4-1z" class="B"/><path d="M616 837v1h3l-3-1z" class="C"/><path d="M619 837v1h5l-5-1m631 2l1 1-1-1m541 3v7h1l-1-7m-526 1l1 1-1-1m48 0l1 1-1-1m206 0v7h1l-1-7m-866 1v1l3 2h1l1-2-5-1m656 0l1 1-1-1m-668 1v1h4l-4-1z" class="B"/><path d="M645 845v1h3l-3-1z" class="C"/><path d="M611 849v2l46-5c-12.174-5.107-32.905 2.73-46 3z" class="D"/><path d="M1818 845v8h1l-1-8m-1187 1v1h3l-3-1z" class="B"/><path d="M634.667 846.333l.666.334-.666-.334m20 0l.666.334-.666-.334z" class="C"/><path d="M1291 846l1 1-1-1m255 0v8h1l-1-8m-924 1v1h3l-3-1z" class="B"/><path d="M625.667 847.333l.666.334-.666-.334m17 0l.666.334-.666-.334z" class="C"/><path d="M644 847v1h4l-4-1m-341 1l1 1-1-1m17 0v1h32l-32-1m294 0v1h3l-3-1z" class="B"/><path d="M617 848l1 1-1-1m15.667.333l.666.334-.666-.334z" class="C"/><path d="M634 848v1h3l-3-1z" class="B"/><path d="M219 849l11 102h114l8-102H219z" class="E"/><path d="M610 849l1 1-1-1z" class="B"/><path d="M622 849v1h3l-3-1z" class="C"/><path d="M625 849v1h3l-3-1m-407 1l1 1-1-1z" class="B"/><path d="M323 850l1 1-1-1z" class="D"/><path d="M610 850l1 1-1-1m5 0l1 1-1-1z" class="C"/><path d="M616 850v1h3l-3-1m-265 2v7h1l-1-7m-132 4v4h1l-1-4m1571 1v7h1l-1-7m-272 1v8h1l-1-8m-865 2v1h3l-3-1m-13 1v1h4l-4-1z" class="B"/><path d="M644 861v1h3l-3-1z" class="C"/><path d="M611 866l45-4c-8.405-3.526-24.867.301-34 1.17-3.557.338-8.603.087-11 2.83z" class="D"/><path d="M656 861l-2 1v1l2-2z" class="C"/><path d="M626 862v1h4l-4-1z" class="B"/><path d="M630 862v1h4l-4-1z" class="C"/><path d="M656 862l1 1-1-1m889 0v9h1l-1-9m272 0v7h1l-1-7m-1205 1v1h5l-5-1z" class="B"/><path d="M617 863v1h3l-3-1m23 0v1h3l-3-1z" class="C"/><path d="M643 863v1h5l-5-1z" class="B"/><path d="M610 864l1 1-1-1m17 0v1h3l-3-1z" class="C"/><path d="M630 864v1h4l-4-1m-20 1l1 1-1-1z" class="B"/><path d="M613 865v1h3l-3-1z" class="C"/><path d="M616 865v1h5l-5-1m-396 1v3h1l-1-3m130 1v5h1l-1-5m1439 5v8h1l-1-8m-1568 2v4h1l-1-4m1296 0v7h1l-1-7m299 4v8h1l-1-8m-1149 1v1h9l-9-1z" class="B"/><path d="M676 879l1 1-1-1z" class="C"/><path d="M677 879l-3 2v1c2.449-.289 4.558-.48 3-3m-328 1v6h1l-1-6m300 0v1h5l-5-1z" class="B"/><path d="M654 880v1h4l-4-1z" class="C"/><path d="M611 885v1l67-5-23-.17-44 4.17z" class="D"/><path d="M1544 880v6h1l-1-6m-907 1v1h3l-3-1z" class="B"/><path d="M640 881v1h3l-3-1m28 0v1h6l-6-1z" class="C"/><path d="M626 882v1h3l-3-1z" class="B"/><path d="M629 882v1h3l-3-1m21 0v1h3l-3-1z" class="C"/><path d="M653 882v1h6l-6-1m-431 1v5h1l-1-5m395 0v1h3l-3-1z" class="B"/><path d="M620.667 883.333l.666.334-.666-.334M637 883v1h3l-3-1z" class="C"/><path d="M640 883v1h3l-3-1m-29 1l1 1-1-1z" class="B"/><path d="M612 884l1 1-1-1m14 0v1h3l-3-1z" class="C"/><path d="M629 884v1h3l-3-1z" class="B"/><path d="M617.667 885.333l.666.334-.666-.334z" class="C"/><path d="M619 885v1h3l-3-1m-8 1v1h3l-3-1m905 1v8h1l-1-8m272 1v7h1l-1-7m-244 1l1 1-1-1m-877 1v1h3l-3-1z" class="B"/><path d="M670 890v1h3l-3-1z" class="C"/><path d="M610 898v1l27-2.845L677 891l-18 .925L610 898z" class="D"/><path d="M658 891v1h3l-3-1z" class="B"/><path d="M661.667 891.333l.666.334-.666-.334M676 891l1 1-1-1z" class="C"/><path d="M649 892v1h3l-3-1z" class="B"/><path d="M652.667 892.333l.666.334-.666-.334m16 0l.666.334-.666-.334z" class="C"/><path d="M670 892v1h4l-4-1m-447 1v3h1l-1-3m418 0v1h3l-3-1z" class="B"/><path d="M644.667 893.333l.666.334-.666-.334m15 0l.666.334-.666-.334z" class="C"/><path d="M661 893v1h3l-3-1m-313 1v5h1l-1-5m285 0v1h3l-3-1z" class="B"/><path d="M636 894l1 1-1-1m14.667.333l.666.334-.666-.334z" class="C"/><path d="M652 894v1h3l-3-1m-25.333 1.333l.666.334-.666-.334z" class="B"/><path d="M628.667 895.333l.666.334-.666-.334M642 895l1 1-1-1z" class="C"/><path d="M643 895v1h3l-3-1m1172 0v10h1l-1-10m-1197 1v1h3l-3-1z" class="B"/><path d="M621 896l1 1-1-1m13.667.333l.666.334-.666-.334z" class="C"/><path d="M636.667 896.333l.666.334-.666-.334m-25 1l.666.334-.666-.334z" class="B"/><path d="M613.667 897.333l.666.334-.666-.334m13 0l.666.334-.666-.334z" class="C"/><path d="M628.667 897.333l.666.334-.666-.334z" class="B"/><path d="M619 898l1 1-1-1z" class="C"/><path d="M620 898v1h3l-3-1m923 0v8h1l-1-8z" class="B"/><path d="M610 899l1 1-1-1m2 0l1 1-1-1z" class="C"/><path d="M613 899v1h3l-3-1m1174 2v8h1l-1-8m-1563 1v3h1l-1-3m1291 0v8h1l-1-8m-1168 5v6h1l-1-6m-122 4v4h1l-1-4m1589 1v8h1l-1-8m-272 1v9h1l-1-9z" class="B"/><path d="M259 915l1 1-1-1z" class="D"/><path d="M646.667 916.333l.666.334-.666-.334z" class="B"/><path d="M648 916l1 1-1-1z" class="C"/><path d="M610 920v2c13.574 0 29.05-.616 42-5l-16 1.572L610 920z" class="D"/><path d="M1786 916v8h1l-1-8m-1145.333 1.333l.666.334-.666-.334z" class="B"/><path d="M642 917l1 1-1-1m9 0l1 1-1-1z" class="C"/><path d="M1514 917v8h1l-1-8m-882 1v1h3l-3-1z" class="B"/><path d="M635.667 918.333l.666.334-.666-.334m11 0l.666.334-.666-.334z" class="C"/><path d="M648 918l1 1-1-1m-27 1v1h5l-5-1z" class="B"/><path d="M626.667 919.333l.666.334-.666-.334m14 0l.666.334-.666-.334z" class="C"/><path d="M642.667 919.333l.666.334-.666-.334M226 920v3h1l-1-3m120 0v6h1l-1-6m263.333.667l.334.666-.334-.666z" class="B"/><path d="M633.667 920.333l.666.334-.666-.334z" class="C"/><path d="M635.667 920.333l.666.334-.666-.334z" class="B"/><path d="M622 921v1h3l-3-1z" class="C"/><path d="M625 921v1h4l-4-1m-14 1v1h3l-3-1z" class="B"/><path d="M262 928l1 1-1-1z" class="D"/><path d="M1813 928v8h1l-1-8m-1586 1v3h1l-1-3m1314 0v9h1l-1-9m244 2v9h1l-1-9m-272 1v9h1l-1-9z" class="B"/><use xlink:href="#B" x="-339" y="617" class="D"/><path d="M345 934v5h1l-1-5m-117 4v4h1l-1-4z" class="B"/><path d="M1182 941l8.17 73 6.83 62-498 10 8-139c-8.011 1.018-19.61 1.567-25.815 7.275-6.95 6.393-9.829 17.975-12.465 26.725-6.13 20.35-9.728 41.72-9.72 63 .003 7.01-.612 17.44 1.893 24 2.851 7.46 11.904 13.88 17.683 19.12 2.398 2.17 7.294 5.28 7.383 8.88.363 14.72-13.673 6.72-18.959 3 1.474 9.98 5.798 24.55 15.001 29.91 10.307 6.02 26.51 3.09 37.999 3.09 32.327 0 64.635-2.99 97-3 9.398 0 21.886.9 31-.98 11.403-2.36 22.274-9.93 34-12.68 17.623-4.15 35.951-5.43 54-5.34 20.794.1 41.902 3.58 62 8.88 7.88 2.08 16.03 7.16 24 8.2 24.74 3.24 51.03 1.32 76 1.93l107 1.99c33.32 0 80.4 4.05 100.54-29 5.85-9.61 8.34-20.09 10.46-31-39.13-15.09-75.52-49.84-77.79-94-.64-12.362 4.06-24.197 6.79-36h-63z" class="C"/><path d="M1245.33 941.667l.34.666-.34-.666M1182 943v6h1l-1-6m62 0v3h1l-1-3m568 1v9h1l-1-9m-568.67 2.667l.34.666-.34-.666M1540 946v7h1l-1-7m-1311 1v4h1l-1-4z" class="B"/><path d="M281 947l1 1-1-1z" class="D"/><path d="M344 947v4h1l-1-4m358.667.333l.666.334-.666-.334M707 947v3h1l-1-3m1077 0v6h1l-1-6m-1087.333 1.333l.666.334-.666-.334M1512 948v4h1l-1-4z" class="B"/><use xlink:href="#B" x="-372" y="632" class="D"/><path d="M691.667 949.333l.666.334-.666-.334M1242 949v3h1l-1-3z" class="B"/><path d="M311 950l1 1-1-1z" class="D"/><path d="M687 950l1 1-1-1m-457 1v1h33l-33-1m53 0v1h26l-26-1m45 0v1h16l-16-1m357 0l1 1-1-1m-4 2l1 1-1-1m502 0v5h1l-1-5m58 0v3h1l-1-3m-561 1l1 1-1-1m-1 1l1 1-1-1m1132 1v3h1l-1-3m-1133 1l1 1-1-1m28 0v10h1l-1-10m534 0v3h1l-1-3m273 0v3h1l-1-3m26.33.667l.34.666-.34-.666M1785 957v3h1l-1-3m-1108 1l1 1-1-1m-1 2l1 1-1-1m1134.33.667l.34.666-.34-.666m-296 1l.34.666-.34-.666M1538 961l1 1-1-1m248.33.667l.34.666-.34-.666M675 962l1 1-1-1m509 0v5h1l-1-5m55 0v5h1l-1-5m298.33 1.667l.34.666-.34-.666m272 0l.34.666-.34-.666M674 964l1 1-1-1m841 0l1 1-1-1m272 0l1 1-1-1m-250.67 1.667l.34.666-.34-.666M1808 965l1 1-1-1m-292 1l1 1-1-1m272 0l1 1-1-1m-1115 1l1 1-1-1m862 0l1 1-1-1m272 0l1 1-1-1m-290 1l1 1-1-1m272 0l1 1-1-1m-1117 1l1 1-1-1m846 0l1 1-1-1m272 0l1 1-1-1m-605 1v6h1l-1-6m334 0l1 1-1-1m14 0l1 1-1-1m258 0l1 1-1-1m-270.33 1.333l.66.334-.66-.334M1531 971l1 1-1-1m261 0l1 1-1-1m11 0l1 1-1-1m-1132 1l1 1-1-1m567 0v8h1l-1-8m284.67.333l.66.334-.66-.334m6 0l.66.334-.66-.334m266 0l.66.334-.66-.334m6 0l.66.334-.66-.334M705 974v10h1l-1-10m-35 1l1 1-1-1m-1 3l1 1-1-1m517 2v5h1l-1-5m-518 1l1 1-1-1m-.667 3.667l.334.666-.334-.666M1239 984v5h1l-1-5m-572.667 3.667l.334.666-.334-.666M1187 989v5h1l-1-5m53 1v4h1l-1-4m-575 1l1 1-1-1m39 0v9h1l-1-9m-39.667 4.667l.334.666-.334-.666m576.997 0l.34.666-.34-.666M1188 997v6h1l-1-6m54.33 1.667l.34.666-.34-.666m-668.997 1l.334.663-.334-.663z" class="B"/><path d="M574 999l1 1-1-1z" class="C"/><path d="M575 999l1 1-1-1z" class="B"/><path d="M574 1000l1 4 4-3-5-1z" class="D"/><path d="M578 1000l1 1-1-1z" class="C"/><path d="M579.333 1000.67l.334.66-.334-.66m84 0l.334.66-.334-.66m579.997 1l.34.66-.34-.66M574 1002l1 1-1-1m4 0l1 1-1-1m-1 1l1 1-1-1m-1.333 1.33l.666.34-.666-.34M1244 1004l1 1-1-1m-581.667 1.67l.334.66-.334-.66z" class="B"/><path d="M1244 1005l1 1-1-1m-662 13c12.387 12.29 25.659 23.66 38 36 8.151 8.15 16.666 15.99 25 23.96 8.52 8.15 19.516 23.13 29.985 28.29 4.465 2.2 12.784-6.91 11.67-11.25-1.755-6.83-15.646-16.1-20.655-20.99-16.682-16.26-34.165-31.88-51.001-48.05-5.172-4.97-12.919-16.77-19.984-18.62-4.554-1.18-10.473 7.55-13.015 10.66z" class="E"/><path d="M1189 1006v6h1l-1-6m56.33.67l.34.66-.34-.66M703 1007v10h1l-1-10m543.33 1.67l.34.66-.34-.66M589 1010l1 1-1-1m72 0v3h1l-1-3m586 1l1 1-1-1m1.33 1.67l.34.66-.34-.66M585 1014l1 1-1-1m664 0l1 1-1-1z" class="B"/><path d="M1249 1015l1 1-1-1z" class="E"/><path d="M583 1016l1 1-1-1m607 0v5h1l-1-5m60 0l1 1-1-1m-590 1v4h1l-1-4z" class="B"/><path d="M1250 1017l1 1-1-1z" class="E"/><path d="M1251 1018l1 1-1-1m1 2l1 1-1-1m1 1l1 1-1-1m1 2l1 1-1-1m-552 1v9h1l-1-9m489 0v6h1l-1-6m64 0l1 1-1-1m-665 1l1 1-1-1m24 0l1 1-1-1m642.33.67l.34.66-.34-.66M615 1026l1 1-1-1m44 1v6h1l-1-6m598 0l1 1-1-1m-664 1l1 1-1-1m24 0l1 1-1-1m641 0l1 1-1-1m-664 1l1 1-1-1m24 0l1 1-1-1m641.33.67l.34.66-.34-.66M596 1031l1 1-1-1m664 0l1 1-1-1m1 1l1 1-1-1m-639 1l1 1-1-1m640 0l1 1-1-1m-70 1v5h1l-1-5m71 0l1 1-1-1m1 2l1 1-1-1m1 1l1 1-1-1m1 1l1 1-1-1m1 1l1 1-1-1m-566 1v11h1l-1-11m567 0l1 1-1-1m-638 1l1 1-1-1m639 0l1 1-1-1m1 1l1 1-1-1m-661 1l1 1-1-1m584 0v5h1l-1-5m78 0l1 1-1-1m-661 1l1 1-1-1m662 0l1 1-1-1m-661 1l1 1-1-1m662 0l1 1-1-1m-661 1l1 1-1-1m662 0l1 1-1-1m3 2l1 1-1-1m1 1l1 1-1-1m1 1l1 1-1-1m1 1l1 1-1-1m-638 1l1 1-1-1m552 0v5h1l-1-5m87.67.33l.66.34-.66-.34M643 1053l1 1-1-1m16 0v8h1l-1-8m624 0l1 1-1-1m-639 1l1 1-1-1m640 0l1 1-1-1m-639 1l1 1-1-1m640.67.33l.66.34-.66-.34M646 1056l1 1-1-1m641 0l1 1-1-1m-640 1l1 1-1-1m53 0v10h1l-1-10m588.67.33l.66.34-.66-.34M648 1058l1 1-1-1m642 0l1 1-1-1m1.67 1.33l.66.34-.66-.34m1.33.67l1 1-1-1m-98 1v5h1l-1-5m100 0l1 1-1-1z" class="B"/><path d="M1296 1062l1 1-1-1z" class="E"/><path d="M1297 1062l1 1-1-1m-667 1l1 1-1-1m668.67.33l.66.34-.66-.34M631 1064l1 1-1-1m23 0l1 1-1-1m646.67.33l.66.34-.66-.34M655 1065l1 1-1-1m647.67.33l.66.34-.66-.34M527 1066v1l4 1v-1l-4-1m106 0l1 1-1-1m671.67.33l.66.34-.66-.34z" class="B"/><path d="M524 1067l4 4 2-4h-6z" class="D"/><path d="M545 1067l-8 16c23.689 13.83 48.87 25.26 73 38.31 13.267 7.17 29.069 19.03 44 21.69l6-14c-36.799-21.48-75.89-45.15-115-62m89 0l1 1-1-1m26.333.67l.334.66-.334-.66z" class="B"/><path d="M1306 1067l1 1-1-1z" class="E"/><path d="M1307 1067l1 1-1-1m-783 1l1 1-1-1z" class="B"/><path d="M529 1068l1 1-1-1z" class="E"/><path d="M1309.67 1068.33l.66.34-.66-.34M525 1069l1 1-1-1m4 0l1 1-1-1m667 0l-1 7 1-7m116.67.33l.66.34-.66-.34z" class="B"/><path d="M526 1070l1 1-1-1z" class="C"/><path d="M528 1070l1 1-1-1m786.67.33l.66.34-.66-.34M527 1071l1 1-1-1m788.33 2.67l.34.66-.34-.66M699 1074v9h1l-1-9m445 2v1h30l-30-1m-51 1v1h27l-27-1m-52 1v1h29l-29-1m273.33.67l.34.66-.34-.66M989 1079v1h27l-27-1m-51 1v1h30l-30-1m-52 1v1h29l-29-1m-236 1l1 1-1-1m182 0v1h32l-32-1m-48 1v1h27l-27-1m529 0l1 1-1-1m-661 1l1 1-1-1m81 0v1h28l-28-1m-34 1v1h12l-12-1m613.33 1.67l.34.66-.34-.66M1311 1089l1 1-1-1m-1 3l1 1-1-1m-1 2l1 1-1-1m-644 2l1 1-1-1m643 0l1 1-1-1m-641.667 2.67l.334.66-.334-.66M1307 1098l1 1-1-1m-1 2l1 1-1-1m-639 2l1 1-1-1m638 0l1 1-1-1m-1 1l1 1-1-1m-635.667 2.67l.334.66-.334-.66M1302 1106l1 1-1-1m-1 1l1 1-1-1m-631.667 1.67l.334.66-.334-.66M845 1128c-5.066 5.23-11.763 8.79-16.985 14.01-9.509 9.52-16.242 21.6-21.215 33.99-2.437 6.07-6.174 13.4-4.8 20-4.335 3.3-4.551 11.87-5.414 17-2.662 15.84-4.586 31.94-4.586 48 0 64.85 13.623 145.15 76 179.65 34.991 19.36 83.615 15.79 120 1.69 13.26-5.14 25.96-17.79 39-21.34 10.92-13.55 23.2-24.33 31.69-40 27.95-51.56 33.4-120.65 18.16-177-7.21-26.65-23.99-65.8-52.85-75v-1h11c-4.61-1.93-9.71-.01-14.42-1.47-40.906-12.67-80.457-20.58-123.58-14.23-11.058 1.63-22.545 4.12-33 8.13-5.984 2.29-12.566 7.51-19 7.57m-174.667-16.33l.334.66-.334-.66M671 1114l1 1-1-1m623 0l1 1-1-1m-1 1l1 1-1-1m-620.667 1.67l.334.66-.334-.66M1292 1116l1 1-1-1m-2 1l1 1-1-1m-1 1l1 1-1-1m-616 1l1 1-1-1m614 0l1 1-1-1m-2 1l1 1-1-1m-611 1l1 1-1-1m609 0l1 1-1-1m-2 1l1 1-1-1m-2 1l1 1-1-1m-603 1l1 1-1-1m600.67.33l.66.34-.66-.34M677 1125l1 1-1-1m596.67.33l.66.34-.66-.34M678 1126l1 1-1-1m592 0l1 1-1-1m-591 1l1 1-1-1m587.67.33l.66.34-.66-.34M680 1128l1 1-1-1m146 0v1h16l-16-1m230 0v1h14l-14-1m204 0v1h3l-3-1m-578 1l1 1-1-1m110 0v1h14l-14-1m296 0v1h16l-16-1m165 0v1h4l-4-1m-568.333 1.33l.666.34-.666-.34M762 1130v1h12l-12-1m366 0v1h21l-21-1m114 0v1h6l-6-1m-554.333 1.33l.666.34-.666-.34M731 1131v1h13l-13-1m-39 1v1h22l-22-1z" class="B"/><path d="M1033 1135v3h1l-1-3m-199 3l1 1-1-1m203 1l1 1-1-1m-209 4l1 1-1-1m215 1l2 2-2-2m-2 1l1 1-1-1m6 3l1 1-1-1m-6 2l1 1-1-1m-215 1l1 1-1-1m-7 3l1 1-1-1m232 0l1 1-1-1m-234 3l1 1-1-1m241 7l1 1-1-1m-1 6l1 1-1-1m5 0l1 1-1-1m-252 1l1 1-1-1m252 3l1 1-1-1m4 4l1 1-1-1m-260 2l1 1-1-1m-2 6l1 1-1-1m-3 9l1 1-1-1z" class="C"/><path d="M1339 1200v1h3l-3-1z" class="B"/><path d="M1287 1202c.42 51.11 10.99 103.03 15.09 154 1.21 15.05 2.4 44.96 25.91 38.21 19.57-5.62 15-32.48 15-48.21l2-146-58 2z" class="E"/><path d="M1345 1200v5h1l-1-5m-15 1v1h4l-4-1m-37 1v1h24l-24-1m-6 7v4h1l-1-4m1 10v3h1l-1-3z" class="B"/><path d="M597 1226c0 27.6 1.668 55.4 1.996 83 .235 19.71-1.987 40.45.58 60 1.916 14.6-5.103 36.93 13.424 43.08 22.208 7.38 24.922-17.09 26.714-32.08 5.28-44.15 11.38-89.6 13.286-134-19.691-2.65-37.879-12.56-56-20z" class="E"/><path d="M598 1226l1 1-1-1m2 1l1 1-1-1m2 1l1 1-1-1m687 1v3h1l-1-3m-682.333 1.33l.666.34-.666-.34m2.333.67l1 1-1-1m2 1l1 1-1-1m2 1l1 1-1-1m3 1l1 1-1-1m2 1l1 1-1-1m3 1l1 1-1-1m2 1l1 1-1-1m3 1l1 1-1-1m3 1l1 1-1-1m661 0v3h1l-1-3m-693 1v20h1l-1-20m35 0l1 1-1-1m3 1l1 1-1-1m3.667 1.33l.666.34-.666-.34m3.333.67l1 1-1-1m3.667 1.33l.666.34-.666-.34m4 1l.666.34-.666-.34M1344 1248v21h1l-1-21m-53 1v4h1l-1-4m-639 2v3h1l-1-3m640 8v3h1l-1-3m-641 2v3h1l-1-3m-53.667 1.67l.334.66-.334-.66M1293 1269v4h1l-1-4m-643 2v4h1l-1-4m644 7v5h1l-1-5m-645 2v5h1l-1-5m646 9v3h1l-1-3m-647 2v3h1l-1-3m648 8v3h1l-1-3m-649 2v4h1l-1-4m-49 1v23h1l-1-23m699 7v3h1l-1-3m46 0v23h1l-1-23m-697 2v4h1l-1-4m652 8v4h1l-1-4m-653 2v4h1l-1-4m654 8v3h1l-1-3m-655 2v4h1l-1-4m656 8v4h1l-1-4m-657 2v4h1l-1-4m658 8v3h1l-1-3m-659 2v4h1l-1-4z" class="B"/><path d="M806 1352l1 1-1-1z" class="C"/><path d="M1302 1359v4h1l-1-4m-661 2v4h1l-1-4m-42 7v20h1l-1-20m704 1v4h1l-1-4m-663 2v4h1l-1-4m702 0v8h1l-1-8m-38 8l1 1-1-1m-665 2v4h1l-1-4m666 1l1 1-1-1m36 0l1 1-1-1m-1 2l1 1-1-1m-33 2l1 1-1-1m32 0l1 1-1-1m-1 1l1 1-1-1z" class="B"/><path d="M820 1389l1 1-1-1z" class="C"/><path d="M1336 1389l1 1-1-1m-1 1l1 1-1-1m-697 1v4h1l-1-4m696 0l1 1-1-1m-2 1l1 1-1-1m-17 1l1 1-1-1m15 0l1 1-1-1m-11.33 1.33l.66.34-.66-.34m8.33-.33l1 1-1-1z" class="B"/><path d="M1046 1397l1 1-1-1z" class="C"/><path d="M600.333 1398.67l.334.66-.334-.66M637 1399l1 1-1-1m-1 3l1 1-1-1m-33 3l1 1-1-1m31 0l1 1-1-1z" class="B"/><path d="M830 1405l1 1-1-1m208 0l1 1-1-1z" class="C"/><path d="M604 1406l1 1-1-1m29 0l1 1-1-1z" class="B"/><path d="M1037 1407l1 1-1-1z" class="C"/><path d="M606 1408l1 1-1-1m1 1l1 1-1-1m23 0l1 1-1-1m-19 2l1 1-1-1m16 0l1 1-1-1m-14 1l1 1-1-1m11 0l1 1-1-1z" class="B"/><path d="M837 1413l1 1-1-1m192 2l1 1-1-1z" class="C"/><path d="M839 1418l1 82c0 9.25-2.642 24.3 4.394 31.66 8.094 8.46 21.733 4.01 24.678-6.66 2.511-9.1 2.19-19.62 3.098-29 1.665-17.21 4.819-34.7 4.83-52-15.479-4.46-25.381-17.11-38-26z" class="E"/><path d="M838 1419l1 1-1-1z" class="B"/><path d="M1025 1420l1 1-1-1z" class="C"/><path d="M1027 1421c-9.84 2.56-18.59 11.65-28 15.97-3.086 1.42-8.962 2.84-10.357 6.3-1.735 4.31.733 12.18 1.188 16.73 1.266 12.66 2.078 25.38 3.745 38 1.492 11.3-1.348 33.03 12.424 37.35 23.56 7.39 17.95-25.97 19.58-38.35 1.24-9.47.42-19.45.42-29 0-15.7 1-31.35 1-47z" class="E"/><path d="M847 1425l1 1-1-1m2 2l1 1-1-1z" class="C"/><path d="M1026 1433v25h1l-1-25z" class="B"/><path d="M858 1434l1 1-1-1m144 1l1 1-1-1m-139 2l1 1-1-1m1 1l1 1-1-1m10 5l1 1-1-1z" class="C"/><path d="M988 1447v4h1l-1-4m-112 6v4h1l-1-4m113 4v4h1l-1-4m-150 5v20h1l-1-20m36 2v3h1l-1-3m115 3v3h1l-1-3m-116 6v4h1l-1-4m117 4v3h1l-1-3m-118 6v4h1l-1-4m119 5v3h1l-1-3m-120 5v4h1l-1-4m121 4v4h1l-1-4m32 0v25h1l-1-25m-154 7v3h1l-1-3m123 3v3h1l-1-3m-124 6v4h1l-1-4m125 4v3h1l-1-3m-155 3l1 1-1-1m.333 3.67l.334.66-.334-.66m29 0l.334.66-.334-.66M996 1525l1 1-1-1m28 1l1 1-1-1m-183 1l1 1-1-1m27 0l1 1-1-1m129 1l1 1-1-1m26 0l1 1-1-1m-181 1l1 1-1-1m25 0l1 1-1-1m132 2l1 1-1-1m22 0l1 1-1-1m-21 1l1 1-1-1m20 0l1 1-1-1m-174 1l1 1-1-1m173 0l1 1-1-1m-172 1l1 1-1-1m15 0l1 1-1-1m141 0l1 1-1-1m14 0l1 1-1-1m-167 1l1 1-1-1m155 0l1 1-1-1m10 0l1 1-1-1m-160 1l1 1-1-1m155.67.33l.66.34-.66-.34z" class="B"/><defs ><path id="B" d="M653.333 317.667l.334.666-.334-.666z"/></defs></svg>