<svg xmlns="http://www.w3.org/2000/svg" xmlns:xlink="http://www.w3.org/1999/xlink" width="1920" height="1920" xmlns:v="https://vecta.io/nano"><style><![CDATA[.B{fill:#838795}.C{fill:#a1b958}.D{fill:#6a7b39}]]></style><path d="M0 0v1920h1920V0H0z" fill="#ddd9cd"/><path d="M915 285c-32.489 37.306-57.375 84.603-76.424 130-44.338 105.661-58.901 222.605-27.149 334 10.889 38.198 27.088 74.571 42.723 111l54.639 124c23.036 49.14 48.016 99.71 59.787 153 7.249 32.82 7.424 65.58 7.424 99h29c3.1 0 8.66 1.04 11.26-1.03 4.49-3.56 5.03-17.54 6.37-22.97 5.5-22.43 8.9-45.3 12.98-68 10.32-57.35 15.31-116.83 15.31-175 0-23.245-1.41-46.805-3.01-70-.65-9.49-3.94-20.672-1.91-30-3.44 0-2.68-9.785-3.17-13l-5-30c-1.02-5.259-3.09-9.928-.66-15 27.23-56.871 51.14-120.14 44.83-185-2.18-22.473-3.89-44.611-7-67-1.34-9.655-7.69-23.699-5-33-2.44 0-1.61-.786-1-3l-2 1v-1l-1-3c1.59-10.902-8.36-26.905-12.4-37-11.59-28.945-26.97-56.711-43.65-83-5.87-9.245-13.399-24.388-22.95-30 15.17 58.635 20.94 127.702 7.349 187-5.778 25.205-18.133 46.871-26.349 71-43.906-66.576-71.471-143.825-67.961-224 1.2-27.386 4.699-54.934 9.208-82 1.65-9.902 8.628-27.534 5.753-37z" class="C"/><path d="M1025 499l1 1-1-1z" class="B"/><path d="M1025 500c10.92 52.926 13.03 105.623 3.75 159-2.46 14.172-5.97 28.271-10.26 42-2.24 7.176-6.75 15.523-7.26 23-.6 8.672 6.16 26.673 10.77 34 6.44-14.965 9.22-32.092 12.4-48 9.26-46.316 10.46-94.08 6.69-141-1.61-20.013-3-52.786-16.09-69z" class="D"/><path d="M1026 501l1 1-1-1m-1 1l1 1-1-1m2 1l1 1-1-1m-.67 3.667l.34.666-.34-.666M1028 506l1 1-1-1m1 3l1 1-1-1m-2 2v3h1l-1-3m3 0l1 1-1-1m1 4l1 1-1-1m-2.67 1.667l.34.666-.34-.666M1032 518l1 1-1-1m34 1l1 1-1-1m-36.67 3.667l.34.666-.34-.666M1033 522l1 1-1-1m34.33.667l.34.666-.34-.666M1068 524v3h1l-1-3m-34 1l1 1-1-1m35 2l1 1-1-1m-38.67 1.667l.34.666-.34-.666z" class="B"/><path d="M1069 528c2.66 18.071 7.45 35.788 9.72 54 4.45 35.791 4.56 72.225-.01 108-3.56 27.956-11.92 55.23-23.13 81-5.8 13.322-16.75 28.672-19.15 43-.83 4.981 1.5 11.059 2.32 16 2.15 12.883 5.25 25.915 5.25 39h1c41.77-78.432 55.95-176.802 42.42-264-2.71-17.532-6.24-34.786-10.55-52-2-7.998-3.46-17.985-7.87-25z" class="D"/><path d="M1070 529l1 1-1-1z" class="C"/><path d="M1035.33 530.667l.34.666-.34-.666M1070 530l1 1-1-1m-1 1l1 1-1-1z" class="B"/><use xlink:href="#B" class="C"/><path d="M1070.33 534.667l.34.666-.34-.666m-39 1l.34.666-.34-.666M1036 535l1 1-1-1z" class="B"/><use xlink:href="#B" x="1" y="3" class="C"/><path d="M1072 537l1 1-1-1z" class="B"/><use xlink:href="#B" x="2" y="6" class="C"/><path d="M1037.33 539.667l.34.666-.34-.666m34 0l.34.666-.34-.666m1.67.333l1 1-1-1z" class="B"/><use xlink:href="#B" x="3" y="10" class="C"/><path d="M1032 543v3h1l-1-3m40 0l1 1-1-1m0 2l1 1-1-1z" class="B"/><use xlink:href="#B" x="4" y="13" class="C"/><path d="M1038.33 546.667l.34.666-.34-.666M1075 547l1 1-1-1z" class="B"/><use xlink:href="#B" x="5" y="17" class="C"/><path d="M1073 550l1 1-1-1m3 1l1 1-1-1m-37 1v3h1l-1-3z" class="B"/><use xlink:href="#B" x="6" y="21" class="C"/><path d="M1074 554v3h1l-1-3m-41 1v3h1l-1-3m44 0l1 1-1-1z" class="B"/><use xlink:href="#B" x="7" y="25" class="C"/><path d="M1078 559l1 1-1-1m-38 1v3h1l-1-3m35 0v3h1l-1-3z" class="B"/><path d="M1079 560v3h1l-1-3z" class="C"/><path d="M1079 563l1 1-1-1z" class="B"/><use xlink:href="#B" x="9" y="33" class="C"/><path d="M1076.33 566.667l.34.666-.34-.666m3.67.333l1 1-1-1m-46 1v13h1l-1-13z" class="B"/><use xlink:href="#B" x="10" y="37" class="C"/><path d="M1041 570v3h1l-1-3m40.33 1.667l.34.666-.34-.666M1077 573v3h1l-1-3z" class="B"/><use xlink:href="#B" x="11" y="42" class="C"/><use xlink:href="#B" x="11" y="44" class="B"/><path d="M1083 578v3h1l-1-3z" class="C"/><path d="M1078 580v3h1l-1-3m5 1l1 1-1-1m-41 1v6h1l-1-6z" class="B"/><path d="M1084 583v3h1l-1-3z" class="C"/><path d="M1084.33 586.667l.34.666-.34-.666M1079 589v3h1l-1-3z" class="B"/><use xlink:href="#B" x="14" y="57" class="C"/><path d="M1085.33 591.667l.34.666-.34-.666M1054 594l2 2-2-2z" class="B"/><path d="M1086 594v3h1l-1-3z" class="C"/><path d="M1051.67 595.333l.66.334-.66-.334z" class="B"/><path d="M1053.26 595.971c-2.92.901-1.39 5.596 1.48 4.536 2.84-1.051 1.5-5.455-1.48-4.536z" class="D"/><path d="M1034 596v12h1l-1-12m23 1v3h1l-1-3m29.33.667l.34.666-.34-.666M1050 598l1 1-1-1m30 1l1 1-1-1m-29 1l1 1-1-1m5 0l1 1-1-1z" class="B"/><path d="M1087 600v4h1l-1-4z" class="C"/><path d="M1052 601l1 1-1-1m2.67.333l.66.334-.66-.334m25.66.334l.34.666-.34-.666m7 3l.34.666-.34-.666z" class="B"/><path d="M1088 608v3h1l-1-3z" class="C"/><path d="M1088 611l1 1-1-1m-45 2v8h1l-1-8z" class="B"/><path d="M1089 614v5h1l-1-5z" class="C"/><path d="M1081 616v8h1l-1-8m-48 2v6h1l-1-6m-12.33 1.333l.66.334-.66-.334M1089 619v3h1l-1-3z" class="B"/><path d="M1019 620v4h4v-4h-4z" class="D"/><path d="M990 625l4-2-4 2z" class="B"/><path d="M994.058 622.801c-6.427 2.092-4.265 12.601 2.834 10.746 6.598-1.723 3.878-12.931-2.834-10.746z" class="D"/><path d="M998 622l1 1-1-1m1 1l1 1-1-1m1 1l1 1-1-1z" class="B"/><path d="M1090 624v4h1l-1-4z" class="C"/><path d="M989 626v4h1l-1-4m12 0v4h1l-1-4m89 2v4h1l-1-4m-58 2v4h1l-1-4m-32 1l1 1-1-1m-10 1l1 1-1-1m8 1l1 1-1-1m-4 1v1h3l-3-1z" class="B"/><path d="M1091 634v7h1l-1-7z" class="C"/><path d="M1031 640l1 1-1-1m11 0v8h1l-1-8m49 1v5h1l-1-5m-61 4v4h1l-1-4z" class="B"/><path d="M1092 649v40h1c0-11.434 3.41-29.488-1-40z" class="C"/><path d="M1081 652v8h1l-1-8m-51.67 1.667l.34.666-.34-.666M1041 657v3h1l-1-3m-12.67 2.667l.34.666-.34-.666m-1 5l.34.666-.34-.666m-1 4l.34.666-.34-.666m14 0l.34.666-.34-.666M1080 670v4h1l-1-4m-54.67 4.667l.34.666-.34-.666M1039 676v3h1l-1-3m-14.67 2.667l.34.666-.34-.666M1079 680v3h1l-1-3m-56 2l1 1-1-1m15 2v3h1l-1-3m-15.67 2.667l.34.666-.34-.666M1078 689v3h1l-1-3m-57 1l1 1-1-1m16.33 2.667l.34.666-.34-.666M1091 692v6h1l-1-6m-71 1l1 1-1-1m57.33 3.667l.34.666-.34-.666M1019 697l1 1-1-1m17.33 1.667l.34.666-.34-.666z" class="B"/><path d="M1091 698v7h1l-1-7z" class="C"/><path d="M1018.33 700.667l.34.666-.34-.666M1076 701v3h1l-1-3m-59 2l1 1-1-1m18 1v3h1l-1-3m-18.67 2.667l.34.666-.34-.666m59 1l.34.666-.34-.666M1090 707v3h1l-1-3m-55.67 2.667l.34.666-.34-.666M1049 709v1h3l-3-1m-34 1l1 1-1-1m32 0l1 1-1-1z" class="B"/><path d="M1048.13 710.747c-7.08 2.963-2.22 13.981 4.76 11.467 7.52-2.709 2.94-14.688-4.76-11.467z" class="D"/><path d="M1054 710l1 1-1-1z" class="B"/><path d="M1090 710v5h1l-1-5z" class="C"/><path d="M1055 711l1 1-1-1m1 1l1 1-1-1m18.33.667l.34.666-.34-.666M1014 713l1 1-1-1m19.33 1.667l.34.666-.34-.666M1044 714l1 1-1-1m-30.67 1.667l.34.666-.34-.666M1073 717l1 1-1-1m16.33.667l.34.666-.34-.666M1012 718l1 1-1-1m32 0l1 1-1-1m-12 1l1 1-1-1m24 0l1 1-1-1z" class="B"/><path d="M1089 719v5h1l-1-5z" class="C"/><path d="M1045 720l1 1-1-1m-34 1l1 1-1-1m35 0l1 1-1-1m9 0l1 1-1-1m17.33.667l.34.666-.34-.666M1048 722l1 1-1-1m5 0l1 1-1-1m-2.33 1.333l.66.334-.66-.334M1010 724l1 1-1-1m21.33.667l.34.666-.34-.666M1071 725l1 1-1-1m17.33.667l.34.666-.34-.666z" class="B"/><path d="M1088 727v4h1l-1-4z" class="C"/><path d="M1030.33 728.667l.34.666-.34-.666M1070 729l1 1-1-1m-58 1l1 1-1-1m17.33 2.667l.34.666-.34-.666m58 0l.34.666-.34-.666M1069 733l1 1-1-1z" class="B"/><path d="M1087 734v3h1l-1-3z" class="C"/><path d="M1014 736l1 1-1-1m14 0l1 1-1-1m40 0l1 1-1-1m-23 1l1 1-1-1m-3 1l-1 2 1-2z" class="B"/><path d="M1043.23 739.047c-5.67 3.246.27 11.346 5.33 7.921 4.69-3.171-.51-10.678-5.33-7.921z" class="D"/><path d="M1048 738l1 1-1-1m38 0v3h1l-1-3m-71 1l1 1-1-1m34 0l1 1-1-1m18 0l1 1-1-1m-40 1l1 1-1-1m23.33.667l.34.666-.34-.666M1040 741l1 1-1-1z" class="B"/><use xlink:href="#B" x="15" y="209" class="C"/><path d="M1016 742l1 1-1-1m50 0l1 1-1-1m-26 2l1 1-1-1m45.33.667l.34.666-.34-.666M1017 745l1 1-1-1m33 0l1 1-1-1m15 0l1 1-1-1m-24 1l1 1-1-1z" class="B"/><path d="M1085 746v3h1l-1-3z" class="C"/><path d="M1025 747l1 1-1-1m17 0l1 1-1-1m1 1v1h5l-5-1m21 0l1 1-1-1m-40 2l1 1-1-1m60 0l1 1-1-1z" class="B"/><path d="M1084 751v3h1l-1-3z" class="C"/><path d="M1023 754l1 1-1-1m39 0l1 1-1-1m-42 1l1 1-1-1m63.33.667l.34.666-.34-.666M1022 757l1 1-1-1m39 0l1 1-1-1z" class="B"/><use xlink:href="#B" x="12" y="225" class="C"/><path d="M1060 759l1 1-1-1m22 1l1 1-1-1m-23 1l1 1-1-1z" class="B"/><use xlink:href="#B" x="11" y="229" class="C"/><path d="M1058 764l1 1-1-1m23.33.667l.34.666-.34-.666M1057 766l1 1-1-1z" class="B"/><use xlink:href="#B" x="10" y="234" class="C"/><path d="M1056 768l1 1-1-1m24 1l1 1-1-1z" class="B"/><use xlink:href="#B" x="9" y="238" class="C"/><path d="M1055 771l1 1-1-1m-1 2l1 1-1-1m25 0l1 1-1-1z" class="B"/><use xlink:href="#B" x="8" y="242" class="C"/><path d="M1053 775l1 1-1-1m-1 2l1 1-1-1m26 0l1 1-1-1z" class="B"/><use xlink:href="#B" x="7" y="246" class="C"/><path d="M1077 781l1 1-1-1z" class="B"/><path d="M1077 782l1 1-1-1z" class="C"/><path d="M1049 784l1 1-1-1z" class="B"/><use xlink:href="#B" x="5" y="253" class="C"/><path d="M1048 786l1 1-1-1m-1 2l1 1-1-1m28 0l1 1-1-1z" class="B"/><path d="M1075 789l1 1-1-1z" class="C"/><path d="M1046.33 790.667l.34.666-.34-.666M1074 791l1 1-1-1m-28.67 1.667l.34.666-.34-.666z" class="B"/><use xlink:href="#B" x="3" y="260" class="C"/><path d="M1044 795l1 1-1-1m29 0l1 1-1-1z" class="B"/><path d="M1073 796l1 1-1-1z" class="C"/><path d="M1043 797l1 1-1-1m29 1l1 1-1-1m-30 1l1 1-1-1z" class="B"/><path d="M1072 799l1 1-1-1z" class="C"/><path d="M1041 801l1 1-1-1m30 0l1 1-1-1z" class="B"/><path d="M1071 802l1 1-1-1z" class="C"/><path d="M1070 804l1 1-1-1z" class="B"/><path d="M1070 805l1 1-1-1z" class="C"/><path d="M1069 807l1 1-1-1m-31 1l1 1-1-1z" class="B"/><path d="M1069 808l1 1-1-1z" class="C"/><path d="M1037 810l1 1-1-1m31 0l1 1-1-1z" class="B"/><path d="M1068 811l1 1-1-1z" class="C"/><path d="M1036 812l1 1-1-1m31 1l1 1-1-1z" class="B"/><path d="M1067 814l1 1-1-1z" class="C"/><path d="M838 815l1 1-1-1m197 0l1 1-1-1z" class="B"/><use xlink:href="#B" x="-5" y="284" class="C"/><path d="M1036.33 818.667l.34.666-.34-.666M1065 818l1 1-1-1z" class="B"/><path d="M1065 819l1 1-1-1z" class="C"/><path d="M1064 821l1 1-1-1m-27 1v3h1l-1-3z" class="B"/><path d="M1064 822l1 1-1-1m-.67 2.667l.34.666-.34-.666z" class="C"/><path d="M1062 826l1 1-1-1z" class="B"/><path d="M1062 827l1 1-1-1z" class="C"/><path d="M1038.33 828.667l.34.666-.34-.666M1061 829l1 1-1-1z" class="B"/><path d="M1061 830l1 1-1-1z" class="C"/><path d="M1060 831l1 1-1-1z" class="B"/><path d="M1060 832l1 1-1-1z" class="C"/><use xlink:href="#B" x="-32" y="302" class="B"/><use xlink:href="#B" x="-12" y="302" class="C"/><path d="M1058 836l1 1-1-1z" class="B"/><path d="M1058 837l1 1-1-1z" class="C"/><path d="M1057 839l1 1-1-1m-16.67 1.667l.34.666-.34-.666M1056 841l1 1-1-1z" class="B"/><path d="M1056 842l1 1-1-1m-1 2l1 1-1-1z" class="C"/><path d="M849 845l1 1-1-1m192 0v3h1l-1-3m13 1l1 1-1-1z" class="B"/><path d="M1054 847l1 1-1-1m-1 2l1 1-1-1z" class="C"/><path d="M1052 851l1 1-1-1z" class="B"/><path d="M1052 852l1 1-1-1z" class="C"/><path d="M1042.33 853.667l.34.666-.34-.666M1051 853l1 1-1-1z" class="B"/><path d="M1051 854l1 1-1-1m-.67 2.667l.34.666-.34-.666z" class="C"/><path d="M1043 858v5h1l-1-5m6 0l1 1-1-1z" class="B"/><path d="M1049 859l1 1-1-1m-1 2l1 1-1-1z" class="C"/><path d="M1047 863l1 1-1-1z" class="B"/><path d="M1047 864l1 1-1-1m-1 2l1 1-1-1z" class="C"/><path d="M1045 868l1 1-1-1m-5 1l1 1-1-1m4 0l1 1-1-1z" class="B"/><path d="M875 909c-.028 42.15-3.805 83.737-.911 126 4.675 68.26 17.651 134.44 32.911 201h30c-.088-31.88-2.409-63.23 2.272-95 1.848-12.55 5.12-24.82 8.588-37 1.579-5.55 5.207-12.16 4.837-18-.933-14.71-12.744-31.5-18.245-45-12.678-31.12-27.372-61.372-41.14-92-5.659-12.588-9.482-29.303-18.312-40z" class="D"/><path d="M874 910v6h1l-1-6z" class="C"/><path d="M876 910l1 1-1-1m1 2l1 1-1-1m1 2l1 1-1-1m-4 2v3h1l-1-3m5 1l1 1-1-1m1 2l1 1-1-1m1 2l1 1-1-1z" class="B"/><path d="M873 923v7h1l-1-7z" class="C"/><path d="M884 928l1 1-1-1m-11 2v6h1l-1-6m12 0l1 1-1-1m1 2l1 1-1-1m1 3l1 1-1-1m1 2l1 1-1-1m1 2l1 1-1-1z" class="B"/><path d="M872 940v14h1l-1-14z" class="C"/><path d="M891 944l1 1-1-1m1 3l1 1-1-1m1 2l1 1-1-1m1 2l1 1-1-1m1 2l1 1-1-1m-23 1v14h1l-1-14m25.333 3.667l.334.666-.334-.666m1 2l.334.666-.334-.666M899 962l1 1-1-1m1 2l1 1-1-1m1.333 2.667l.334.666-.334-.666M902 969l1 1-1-1m1 2l1 1-1-1m1 2l1 1-1-1m2 5l1 1-1-1m1 2l1 1-1-1m-35 4v15h1l-1-15m36 0v2h2l-2-2m2 2l1 1-1-1m1 3l1 1-1-1m2 4l1 1-1-1m1 2l1 1-1-1z" class="B"/><path d="M872 999l1 1-1-1z" class="C"/><path d="M872 1000l1 1-1-1m44 0l1 1-1-1z" class="B"/><path d="M872 1001v13h1l-1-13z" class="C"/><path d="M917 1002l1 1-1-1m1 3l1 1-1-1m1.333 1.67l.334.66-.334-.66M920 1009l1 1-1-1m1 2l1 1-1-1m1 2l1 1-1-1m-49 6v5h1l-1-5m52 1l1 1-1-1m1 2l1 1-1-1z" class="B"/><path d="M873 1024v8h1l-1-8z" class="C"/><path d="M927 1024l1 1-1-1m1 2l1 1-1-1m1 3l1 1-1-1m1.333 1.67l.334.66-.334-.66M931 1033l1 1-1-1m-56.667 5.67l.334.66-.334-.66M933 1038l1 1-1-1z" class="B"/><path d="M874 1040v6h1l-1-6z" class="C"/><path d="M934 1041l1 1-1-1m1 2l1 1-1-1m1 2l1 1-1-1m1 2l1 1-1-1m1 3l1 1-1-1m-62.667 1.67l.334.66-.334-.66z" class="B"/><path d="M875 1053v6h1l-1-6z" class="C"/><path d="M940 1054l1 1-1-1m1 2l1 1-1-1m1 3l1 1-1-1m1 2l1 1-1-1m-66.667 1.67l.334.66-.334-.66z" class="B"/><path d="M876 1064v5h1l-1-5z" class="C"/><path d="M945 1066l1 1-1-1m2.333 4.67l.334.66-.334-.66M877 1073l1 1-1-1z" class="B"/><path d="M877 1074v5h1l-1-5z" class="C"/><path d="M949 1076l1 1-1-1m1 2l1 1-1-1m1 3l1 1-1-1m-72.667 1.67l.334.66-.334-.66M952 1083l1 1-1-1z" class="B"/><path d="M878 1084v4h1l-1-4z" class="C"/><path d="M953.333 1086.67l.334.66-.334-.66M957 1088l1 1-1-1m-5 1l1 1-1-1z" class="B"/><path d="M953 1089c-11.594 36.25-17 71.98-17 110 0 8.71.999 17.28 1 26 0 2.8-.918 7.98 1.603 9.97 2.449 1.94 7.487 1.03 10.397 1.03h27c0-37.55-.264-74.45-10.151-111-2.884-10.66-5.485-27.65-12.849-36z" fill="#ddd9cd"/><path d="M879 1090v3h1l-1-3z" class="B"/><path d="M952 1090l1 1-1-1z" class="C"/><path d="M951 1092l1 1-1-1z" class="B"/><path d="M879.333 1093.67l.334.66-.334-.66M951 1093l1 1-1-1z" class="C"/><path d="M950 1095l1 1-1-1z" class="B"/><use xlink:href="#C" class="C"/><path d="M880 1098v3h1l-1-3m69 0l1 1-1-1z" class="B"/><path d="M949 1099l1 1-1-1m-68.667 2.67l.334.66-.334-.66z" class="C"/><path d="M948 1101l1 1-1-1z" class="B"/><use xlink:href="#C" x="-2" y="6" class="C"/><path d="M947 1105l1 1-1-1m-65.667 1.67l.334.66-.334-.66z" class="B"/><path d="M947 1106l1 1-1-1m-66 2v3h1l-1-3z" class="C"/><path d="M946 1108l1 1-1-1z" class="B"/><use xlink:href="#C" x="-4" y="13" class="C"/><path d="M945 1112l1 1-1-1m-62.667 1.67l.334.66-.334-.66z" class="B"/><path d="M945 1113l1 1-1-1m-63 2v3h1l-1-3z" class="C"/><use xlink:href="#C" x="-6" y="19" class="B"/><path d="M944 1117l1 1-1-1z" class="C"/><use xlink:href="#C" x="-67" y="24" class="B"/><path d="M943.333 1120.67l.334.66-.334-.66M883 1122v3h1l-1-3z" class="C"/><path d="M942 1124l1 1-1-1z" class="B"/><use xlink:href="#C" x="-8" y="29" class="C"/><use xlink:href="#C" x="-66" y="30" class="B"/><path d="M884 1128v4h1l-1-4z" class="C"/><use xlink:href="#C" x="-9" y="32" class="B"/><use xlink:href="#C" x="-9" y="34" class="C"/><path d="M885.333 1133.67l.334.66-.334-.66m55 0l.334.66-.334-.66z" class="B"/><path d="M885 1135v3h1l-1-3m55.333.67l.334.66-.334-.66z" class="C"/><path d="M886.333 1139.67l.334.66-.334-.66m53 0l.334.66-.334-.66z" class="B"/><path d="M886 1141v3h1l-1-3m53 0v3h1l-1-3z" class="C"/><path d="M887 1146l1 1-1-1m51.333.67l.334.66-.334-.66z" class="B"/><path d="M887.333 1147.67l.334.66-.334-.66M938 1148v3h1l-1-3m-50 4v3h1l-1-3z" class="C"/><use xlink:href="#C" x="-13" y="58" class="B"/><path d="M937 1156v5h1l-1-5z" class="C"/><path d="M889 1157l1 1-1-1z" class="B"/><use xlink:href="#C" x="-61" y="62" class="C"/><path d="M890 1162l1 1-1-1z" class="B"/><path d="M890 1163v3h1l-1-3z" class="C"/><path d="M936.333 1166.67l.334.66-.334-.66M891 1168l1 1-1-1z" class="B"/><path d="M936 1168v10h1l-1-10m-44.667 1.67l.334.66-.334-.66z" class="C"/><use xlink:href="#C" x="-58" y="76" class="B"/><use xlink:href="#C" x="-58" y="78" class="C"/><use xlink:href="#C" x="-57" y="81" class="B"/><use xlink:href="#C" x="-57" y="83" class="C"/><use xlink:href="#C" x="-56" y="86" class="B"/><use xlink:href="#C" x="-56" y="88" class="C"/><use xlink:href="#C" x="-55" y="91" class="B"/><path d="M895 1189l1 1-1-1z" class="C"/><path d="M896 1192l1 1-1-1z" class="B"/><use xlink:href="#C" x="-54" y="97" class="C"/><use xlink:href="#C" x="-53" y="100" class="B"/><use xlink:href="#C" x="-53" y="102" class="C"/><path d="M898 1201l1 1-1-1z" class="B"/><use xlink:href="#C" x="-52" y="106" class="C"/><path d="M899 1205l1 1-1-1z" class="B"/><use xlink:href="#C" x="-51" y="110" class="C"/><path d="M900 1210l1 1-1-1z" class="B"/><path d="M900.333 1211.67l.334.66-.334-.66M936 1211v14h1l-1-14z" class="C"/><path d="M901 1214l1 1-1-1z" class="B"/><use xlink:href="#C" x="-49" y="119" class="C"/><path d="M902 1218l1 1-1-1z" class="B"/><use xlink:href="#C" x="-48" y="123" class="C"/><path d="M903 1222l1 1-1-1z" class="B"/><path d="M903 1223l1 1-1-1z" class="C"/><path d="M936 1225v3h1l-1-3m-32 1l1 1-1-1z" class="B"/><use xlink:href="#C" x="-46" y="131" class="C"/><path d="M905 1230l1 1-1-1z" class="B"/><path d="M905 1231l1 1-1-1z" class="C"/><use xlink:href="#C" x="-44" y="137" class="B"/><path d="M906 1235l1 1-1-1m31 0l1 1-1-1m-177 1l1 1-1-1z" class="C"/><path d="M761 1236v1h146c-11.456-4.81-31.532-1-44-1H761z" class="B"/><path d="M781 1310l5 30h348l5-30c26.38 2.88 27.22-26.49 30.25-45 1.58-9.7 4.76-24.32-8.25-27.58-9.36-2.34-21.36-.42-31-.42h-64-204-75c-8.742 0-23.137-2.73-30.96 1.57-10.185 5.6-6.636 18.19-5.12 27.43 3.012 18.35 4.051 46.84 30.08 44z" fill="#6a6c79"/><path d="M937 1236v1h222l-21-1h-45-156z" class="B"/><path d="M1159 1236l1 1-1-1m-403 1l1 1-1-1z" class="C"/><path d="M757 1237l1 1-1-1m405 0l1 1-1-1z" class="B"/><path d="M1163 1237l1 1-1-1z" class="C"/><path d="M755 1238l1 1-1-1m409 0l1 1-1-1z" class="B"/><path d="M753 1239l1 1-1-1z" class="C"/><path d="M754 1239l1 1-1-1m411 0l1 1-1-1z" class="B"/><path d="M1166 1239l1 1-1-1z" class="C"/><path d="M752 1240l1 1-1-1m415 0l1 1-1-1z" class="B"/><path d="M751 1241l-1 2 1-2m417 0l2 2-2-2z" class="C"/><path d="M751 1242l1 1-1-1m417 0l1 1-1-1m-418 1l1 1-1-1m419 0l1 1-1-1z" class="B"/><path d="M749 1244l1 1-1-1m421 0l1 1-1-1z" class="C"/><path d="M749 1245l1 1-1-1m421 0l1 1-1-1z" class="B"/><path d="M748 1247l1 1-1-1m423 0l1 1-1-1z" class="C"/><path d="M748 1248v5h1l-1-5m423 0v5h1l-1-5z" class="B"/><path d="M748.333 1253.67l.334.66-.334-.66m422.997 0l.34.66-.34-.66z" class="C"/><path d="M749 1256v4h1l-1-4m421 0v4h1l-1-4z" class="B"/><path d="M749 1260l1 1-1-1m421 0l1 1-1-1z" class="C"/><path d="M750 1263v3h1l-1-3m419 0v3h1l-1-3z" class="B"/><path d="M750.333 1266.67l.334.66-.334-.66m418.997 0l.34.66-.34-.66z" class="C"/><path d="M751 1269v3h1l-1-3m417 0v3h1l-1-3z" class="B"/><path d="M751.333 1272.67l.334.66-.334-.66m416.997 0l.34.66-.34-.66z" class="C"/><path d="M752 1276v3h1l-1-3m415 0v3h1l-1-3z" class="B"/><path d="M752.333 1279.67l.334.66-.334-.66m414.997 0l.34.66-.34-.66z" class="C"/><path d="M753 1282v4h1l-1-4m413 0v4h1l-1-4z" class="B"/><path d="M753 1286l1 1-1-1m413 0l1 1-1-1z" class="C"/><path d="M754 1288v4h1l-1-4m411 0v4h1l-1-4z" class="B"/><path d="M754 1292l1 1-1-1m411 0l1 1-1-1z" class="C"/><path d="M755.333 1293.67l.334.66-.334-.66m408.997 0l.34.66-.34-.66z" class="B"/><path d="M755 1295l1 1-1-1m409 0l1 1-1-1z" class="C"/><path d="M756 1296l1 1-1-1m407 0l1 1-1-1z" class="B"/><path d="M756 1297l1 1-1-1m407 0l1 1-1-1z" class="C"/><path d="M757 1298l1 1-1-1m405 0l1 1-1-1z" class="B"/><path d="M757 1299l1 1-1-1m405 0l1 1-1-1z" class="C"/><path d="M758 1300l1 1-1-1m403 0l1 1-1-1m-402 1l1 1-1-1m401 0l1 1-1-1m-400 1l4 4-4-4m399 0l-3 4 3-4z" class="B"/><path d="M760 1303l1 1-1-1m399 0l1 1-1-1m-398 1l1 1-1-1m397 0l1 1-1-1m-396 1l1 1-1-1m395 0l1 1-1-1z" class="C"/><path d="M764 1306l1 1-1-1m391 0l1 1-1-1z" class="B"/><path d="M765 1307l1 1-1-1z" class="C"/><path d="M766 1307l1 1-1-1m387 0l1 1-1-1z" class="B"/><path d="M1154 1307l1 1-1-1m-387 1l1 1-1-1z" class="C"/><path d="M768 1308l1 1-1-1m383 0l1 1-1-1z" class="B"/><path d="M1152 1308l1 1-1-1m-383 1l1 1-1-1z" class="C"/><path d="M770.667 1309.33l.666.34-.666-.34m378.003 0l.66.34-.66-.34z" class="B"/><path d="M1150 1309l1 1-1-1m-378 1l1 1-1-1z" class="C"/><path d="M773 1310v1h6l-6-1m7 0l1 4h1l-2-4m359 0l-1 4h1v-4m2 0v1h6l-6-1z" class="B"/><path d="M1147 1310l1 1-1-1m-367 1l1 1-1-1m359 0l1 1-1-1m-357.667 3.67l.334.66-.334-.66m356.997 0l.34.66-.34-.66z" class="C"/><path d="M782 1317v4h1l-1-4m355 0v4h1l-1-4z" class="B"/><path d="M782 1321l1 1-1-1m355 0l1 1-1-1z" class="C"/><path d="M783 1324v3h1l-1-3m353 0v3h1l-1-3z" class="B"/><path d="M783 1327l1 1-1-1m353 0l1 1-1-1z" class="C"/><path d="M784 1330v4h1l-1-4m351 0v4h1l-1-4z" class="B"/><path d="M784 1334l1 1-1-1m351 0l1 1-1-1z" class="C"/><path d="M785.333 1337.67l.334.66-.334-.66m348.997 0l.34.66-.34-.66z" class="B"/><path d="M785 1339l1 1-1-1m349 0l1 1-1-1z" class="C"/><path d="M786 1340l15.576 103L825 1586c11.01-2.62 23.718-1 35-1h66 113c17.7 0 38.77-3.1 56 1l23.42-143 15.58-103H786z" class="B"/><path d="M786.333 1345.67l.334.66-.334-.66m346.997 0l.34.66-.34-.66M787 1351v3h1l-1-3m345 0v3h1l-1-3m-343.667 7.67l.334.66-.334-.66m342.997 0l.34.66-.34-.66m-341.997 6l.334.66-.334-.66m340.997 0l.34.66-.34-.66m-339.997 7l.334.66-.334-.66m338.997 0l.34.66-.34-.66m-337.997 6l.334.66-.334-.66m336.997 0l.34.66-.34-.66m-335.997 7l.334.66-.334-.66m334.997 0l.34.66-.34-.66m-333.997 6l.334.66-.334-.66m332.997 0l.34.66-.34-.66m-331.997 7l.334.66-.334-.66m330.997 0l.34.66-.34-.66m-329.997 6l.334.66-.334-.66m328.997 0l.34.66-.34-.66M796 1409v3h1l-1-3m327 0v3h1l-1-3m-325.667 7.67l.334.66-.334-.66m324.997 0l.34.66-.34-.66M798 1423l1 1-1-1m323 0l1 1-1-1m-321.667 6.67l.334.66-.334-.66m320.997 0l.34.66-.34-.66m-319.997 7l.334.66-.334-.66m318.997 0l.34.66-.34-.66m-317.997 6l.334.66-.334-.66M1118 1442v3h1l-1-3m-315.667 7.67l.334.66-.334-.66m314.997 0l.34.66-.34-.66m-313.997 6l.334.66-.334-.66m312.997 0l.34.66-.34-.66M804 1461v3h1l-1-3m311 0v3h1l-1-3m-309.667 7.67l.334.66-.334-.66m308.997 0l.34.66-.34-.66M806 1474v3h1l-1-3m307 0v3h1l-1-3m-305.667 7.67l.334.66-.334-.66m304.997 0l.34.66-.34-.66m-303.997 7l.334.66-.334-.66m302.997 0l.34.66-.34-.66m-301.997 6l.334.66-.334-.66m300.997 0l.34.66-.34-.66m-299.997 7l.334.66-.334-.66m298.997 0l.34.66-.34-.66m-297.997 6l.334.66-.334-.66m296.997 0l.34.66-.34-.66M812 1513v3h1l-1-3m295.33.67l.34.66-.34-.66m-293.997 7l.334.66-.334-.66m292.997 0l.34.66-.34-.66M814 1526v3h1l-1-3m291 0v3h1l-1-3m-289.667 7.67l.334.66-.334-.66m288.997 0l.34.66-.34-.66M816 1539v3h1l-1-3m287 0v3h1l-1-3m-285.667 7.67l.334.66-.334-.66m284.997 0l.34.66-.34-.66M818 1552v3h1l-1-3m283 0v3h1l-1-3m-282 6v3h1l-1-3m281 0v3h1l-1-3m-279.667 7.67l.334.66-.334-.66m278.997 0l.34.66-.34-.66m-277.997 7l.334.66-.334-.66m276.997 0l.34.66-.34-.66M822 1577l1 1-1-1m275 0l1 1-1-1m-274 3l1 1-1-1m273 0l1 1-1-1m-272 3l1 1-1-1m271 0l1 1-1-1z" class="C"/><path d="M826 1585c7.116 22.28 32.205 26 52 26h161c20.61 0 47.43-2.31 55-26H826z" fill="#6a6c79"/><path d="M826 1587l1 1-1-1m267 0l1 1-1-1z" class="B"/><path d="M827 1589l1 1-1-1m265 0l1 1-1-1z" class="C"/><path d="M828 1590l1 1-1-1m263 0l1 1-1-1z" class="B"/><path d="M828 1591l1 1-1-1m263 0l1 1-1-1m-262 1l1 1-1-1m261 0l1 1-1-1z" class="C"/><path d="M830 1593l1 1-1-1m259 0l1 1-1-1m-258 1l1 1-1-1m257 0l1 1-1-1m-256 1l6 6-6-6m255 0l-5 6 5-6z" class="B"/><path d="M832 1596l1 1-1-1m255 0l1 1-1-1m-254 1l1 1-1-1m253 0l1 1-1-1m-252 1l1 1-1-1m251 0l1 1-1-1m-250 1l1 1-1-1m249 0l1 1-1-1m-248 1l1 1-1-1m247 0l1 1-1-1z" class="C"/><path d="M838 1601l1 1-1-1m243 0l1 1-1-1z" class="B"/><path d="M839 1602l1 1-1-1m241 0l1 1-1-1m-240 1l1 1-1-1z" class="C"/><path d="M841 1603l1 1-1-1m237 0l1 1-1-1z" class="B"/><path d="M1079 1603l1 1-1-1m-237 1l1 1-1-1m235 0l1 1-1-1z" class="C"/><path d="M844 1605l1 1-1-1m231 0l1 1-1-1m-229 1l1 1-1-1m227 0l1 1-1-1m-224.333 1.33l.666.34-.666-.34m222.003 0l.66.34-.66-.34z" class="B"/><path d="M850 1608l1 1-1-1z" class="C"/><path d="M851 1608l1 1-1-1m217 0l1 1-1-1z" class="B"/><path d="M1069 1608l1 1-1-1m-216 1l1 1-1-1z" class="C"/><path d="M854.667 1609.33l.666.34-.666-.34m210.003 0l.66.34-.66-.34z" class="B"/><path d="M1066 1609l1 1-1-1m-209 1l1 1-1-1z" class="C"/><path d="M858 1610v1h4l-4-1m200 0v1h4l-4-1z" class="B"/><path d="M1062 1610l1 1-1-1m-199 1v1h194l-19-1h-39-136z" class="C"/><defs ><path id="B" d="M1071.33 532.667l.34.666-.34-.666z"/><path id="C" d="M950.333 1096.67l.334.66-.334-.66z"/></defs></svg>